<?xml version="1.0" encoding="UTF-8"?>
<svg version="1.1" xmlns="http://www.w3.org/2000/svg" width="512" height="512">
<path d="M0 0 C18.15 0 36.3 0 55 0 C55 29.7 55 59.4 55 90 C69.85 90 84.7 90 100 90 C100 105.18 100 120.36 100 136 C121.66865693 135.47406172 140.64910027 134.44724954 161 127 C162.99793784 126.32717847 164.99728581 125.65846815 167 125 C166.27683594 123.515 166.27683594 123.515 165.5390625 122 C164.90065377 120.66685235 164.26265487 119.33350839 163.625 118 C163.30789063 117.35160156 162.99078125 116.70320313 162.6640625 116.03515625 C155.24223781 100.41840013 155.28703096 81.26194953 160.8125 65 C163.74113552 57.76518559 167.88632279 51.84420253 173 46 C177.24039032 46.49353712 179.72125592 49.12455141 182.6875 51.9375 C183.21424316 52.43113037 183.74098633 52.92476074 184.28369141 53.43334961 C195.45995027 64.0319934 204.32441609 74.71389514 208 90 C208.02587916 91.66646574 208.02971659 93.33359828 208 95 C208.59135742 94.85997559 209.18271484 94.71995117 209.79199219 94.57568359 C228.73384183 90.39961499 246.96258317 92.16480855 263.98828125 101.53515625 C266 103 266 103 267 106 C263.83031582 114.28252257 258.17775615 120.80037569 252 127 C251.44699219 127.57621094 250.89398438 128.15242187 250.32421875 128.74609375 C238.78342173 139.77142092 220.45319367 143.19870083 205.0625 143.0625 C204.37865234 143.05798828 203.69480469 143.05347656 202.99023438 143.04882812 C201.32678396 143.0371956 199.6633795 143.01926694 198 143 C197.84362061 143.53294678 197.68724121 144.06589355 197.52612305 144.61499023 C195.59424586 150.82454749 192.91372027 156.35997085 189.8125 162.0625 C189.34908203 162.92810547 188.88566406 163.79371094 188.40820312 164.68554688 C187.27835675 166.79381692 186.1422583 168.89843698 185 171 C199.9429919 171.66577687 217.69966634 170.95468437 229.64453125 160.5703125 C230.78779433 159.40398647 231.89796185 158.20535422 233 157 C233.66 157 234.32 157 235 157 C235.0928125 158.5778125 235.0928125 158.5778125 235.1875 160.1875 C236.17251131 164.80947613 237.31753299 166.10103661 241 169 C248.34837104 173.57540084 256.65135871 175.09521291 265 177 C265 177.66 265 178.32 265 179 C263.42931763 178.97882111 263.42931763 178.97882111 261.8269043 178.95721436 C251.93996796 178.8317695 242.0543809 178.76981901 232.16662598 178.76940536 C227.08334508 178.76716872 222.00219764 178.74287236 216.91943359 178.66748047 C212.01026254 178.5954863 207.10407833 178.58233012 202.19448853 178.60929108 C200.32537141 178.60934671 198.45612879 178.58849842 196.5874939 178.5460434 C186.04069417 178.00353857 186.04069417 178.00353857 177.1151886 182.63842773 C175.06995852 185.68430957 173.50644225 188.66203316 172 192 C170.66398621 193.99884033 170.66398621 193.99884033 169.41796875 195.59375 C168.68191406 196.5528125 167.94585937 197.511875 167.1875 198.5 C162.14789291 204.99890371 156.6836557 211.06218212 151 217 C150.21931152 217.82951172 150.21931152 217.82951172 149.42285156 218.67578125 C131.35737264 237.81028732 109.78542617 251.93234192 86 263 C84.88753906 263.52078125 83.77507812 264.0415625 82.62890625 264.578125 C56.79043105 276.14304912 29.07106737 282.14454391 1 285 C-0.24652344 285.13148438 -1.49304688 285.26296875 -2.77734375 285.3984375 C-6.51883996 285.71558609 -10.24783229 285.89822758 -14 286 C-14.98033203 286.02723145 -15.96066406 286.05446289 -16.97070312 286.08251953 C-62.58886331 287.14730043 -105.34816107 277.81025869 -139.24609375 245.69140625 C-153.10130162 232.15064281 -163.27460019 215.90778759 -169.5 197.5625 C-169.86460327 196.49999023 -169.86460327 196.49999023 -170.23657227 195.41601562 C-172.04176395 189.75628231 -172.38277881 185.17221192 -173 179 C-194.12 179 -215.24 179 -237 179 C-236.505 178.01 -236.505 178.01 -236 177 C-233.31624644 176.12815078 -230.66004403 175.35332751 -227.9375 174.625 C-216.86683692 171.79489369 -216.86683692 171.79489369 -208 165 C-207.42982192 162.95899762 -207.42982192 162.95899762 -207.3125 160.8125 C-207.209375 159.554375 -207.10625 158.29625 -207 157 C-204.63875248 158.04944334 -202.85144787 159.12670623 -200.875 160.8125 C-194.81926141 165.42012718 -188.57894329 168.02745214 -181.15625 169.65234375 C-179.99931641 169.90878662 -178.84238281 170.16522949 -177.65039062 170.42944336 C-176.77576172 170.61772705 -175.90113281 170.80601074 -175 171 C-175.00523682 170.12263184 -175.01047363 169.24526367 -175.01586914 168.34130859 C-175.03298097 165.06493463 -175.04548412 161.78860865 -175.05493164 158.51220703 C-175.0599392 157.09813687 -175.06674718 155.68407184 -175.07543945 154.27001953 C-175.08766256 152.22947927 -175.0932642 150.18900788 -175.09765625 148.1484375 C-175.10289307 146.92302246 -175.10812988 145.69760742 -175.11352539 144.43505859 C-175 141 -175 141 -174 135 C-161.13 135 -148.26 135 -135 135 C-135 120.15 -135 105.3 -135 90 C-120.15 90 -105.3 90 -90 90 C-90 75.15 -90 60.3 -90 45 C-60.3 45 -30.6 45 0 45 C0 30.15 0 15.3 0 0 Z " fill="#394E55" transform="translate(241,113)"/>
<path d="M0 0 C111.54 0 223.08 0 338 0 C329.60911615 13.18567462 320.73855843 24.7553534 310 36 C309.23816406 36.80308594 308.47632813 37.60617187 307.69140625 38.43359375 C302.16822189 44.11430209 296.27599397 49.16872741 290 54 C289.43410156 54.44182617 288.86820312 54.88365234 288.28515625 55.33886719 C268.12234277 70.91626663 245.09583565 81.14979391 221 89 C219.14568359 89.64001953 219.14568359 89.64001953 217.25390625 90.29296875 C199.76391428 96.10811258 181.24587597 98.11809378 163 100 C161.09154297 100.20109375 161.09154297 100.20109375 159.14453125 100.40625 C155.75952283 100.70310823 152.396074 100.87883891 149 101 C148.18901855 101.03254883 147.37803711 101.06509766 146.54248047 101.09863281 C124.04451591 101.89423863 101.28477183 99.62074816 80 92 C79.36352539 91.77586426 78.72705078 91.55172852 78.07128906 91.32080078 C58.38998247 84.296012 41.77799708 72.65953618 27 58 C27 57.67 27 57.34 27 57 C28.02544922 56.98541748 29.05089844 56.97083496 30.10742188 56.95581055 C55.47313476 56.5675046 80.45053882 56.11212331 105 49 C105 47.68 105 46.36 105 45 C99.95468302 45.51482826 95.0868795 46.38223454 90.125 47.4375 C75.72624163 50.34557771 61.41043877 51.33626216 46.73632812 51.26074219 C44.20940158 51.24982459 41.68315794 51.26082237 39.15625 51.2734375 C37.52604012 51.27211872 35.89583066 51.26956219 34.265625 51.265625 C33.52185608 51.26967346 32.77808716 51.27372192 32.01177979 51.27789307 C27.63970795 51.23864286 24.01801075 50.75816092 20 49 C17.875 46.41796875 17.875 46.41796875 16 43.1875 C15.66315186 42.60782471 15.32630371 42.02814941 14.97924805 41.4309082 C7.58132036 28.46042442 2.11586036 14.81102255 0 0 Z " fill="#019AC5" transform="translate(75,291)"/>
<path d="M0 0 C10.85262041 3.71873007 17.83791214 15.24635647 23 25 C26.52960956 32.82737107 27.69724911 40.4624248 28 49 C29.134375 48.54625 30.26875 48.0925 31.4375 47.625 C38.93905211 44.62437916 46.59194187 43.58699585 54.625 43.5625 C55.48657715 43.55935791 56.3481543 43.55621582 57.23583984 43.55297852 C66.1459581 43.71700382 74.01783891 46.00891946 82 50 C78.53430932 59.49732541 71.79370828 66.21485225 63 71 C60.34908312 72.22707104 57.66317058 73.32539253 54.9375 74.375 C54.28918213 74.62596436 53.64086426 74.87692871 52.97290039 75.13549805 C44.72845199 78.103665 36.11262185 78.1742517 27.4375 78.5625 C26.52419922 78.60568359 25.61089844 78.64886719 24.66992188 78.69335938 C22.44672009 78.79811757 20.22343293 78.90029017 18 79 C17.764021 79.56807373 17.52804199 80.13614746 17.28491211 80.72143555 C6.65974099 106.19146653 6.65974099 106.19146653 2 113 C-3.64339413 114.88113138 -10.17670793 111.39752958 -15.34375 108.83984375 C-16.92199735 107.9375261 -18.46624248 106.97602751 -20 106 C-20.7425 106.7425 -21.485 107.485 -22.25 108.25 C-35.75106366 119.38522306 -59.56645878 118.03788116 -76 117 C-107.13245858 113.80205984 -107.13245858 113.80205984 -116 104 C-119.19222172 105.09732622 -121.83811311 106.51134107 -124.625 108.375 C-140.14316679 118.24490346 -160.20244127 118.91613066 -177.87109375 115.75390625 C-186.99175946 113.55629266 -194.92407677 110.22082677 -202 104 C-204.09810955 105.04185302 -206.18613045 106.09740505 -208.26171875 107.18359375 C-209.06222656 107.59738281 -209.86273438 108.01117188 -210.6875 108.4375 C-211.47511719 108.84871094 -212.26273438 109.25992188 -213.07421875 109.68359375 C-235.38502024 119.72196505 -267.1054244 121.50369951 -290 113 C-292.92187292 111.52187605 -295.33815082 109.93114549 -298 108 C-300.3401193 107.10388289 -301.45223607 106.79825397 -303.82421875 107.671875 C-304.43910156 108.02765625 -305.05398438 108.3834375 -305.6875 108.75 C-314.58485105 113.53833232 -323.34947088 115.17941278 -333.375 115.0625 C-337.149375 115.0315625 -337.149375 115.0315625 -341 115 C-341 105.76 -341 96.52 -341 87 C-337.3043837 86.99413376 -333.6087674 86.98826752 -329.80116272 86.98222351 C-295.86000008 86.92697072 -261.91889329 86.85696764 -227.97779405 86.77101372 C-223.52336363 86.75974645 -219.0689329 86.74860785 -214.61450195 86.73754883 C-213.72775803 86.73534514 -212.8410141 86.73314146 -211.92739915 86.730871 C-197.59613716 86.69556218 -183.26487522 86.67066191 -168.93358595 86.64965298 C-154.21279768 86.62783969 -139.49206553 86.59473711 -124.77132505 86.55129844 C-115.69825179 86.52487666 -106.62524836 86.50711166 -97.55213856 86.50065396 C-91.31835601 86.49537094 -85.0846611 86.47905711 -78.85092563 86.45433434 C-75.26202973 86.4404184 -71.67329036 86.43111094 -68.08436584 86.43499184 C-44.68577395 86.45500019 -14.65940093 86.32944876 3.859375 69.2890625 C4.23578125 68.86367187 4.6121875 68.43828125 5 68 C4.55269531 67.56171875 4.10539062 67.1234375 3.64453125 66.671875 C-6.36315968 56.17340179 -9.54476953 42.37998794 -9.25 28.17578125 C-8.53417352 19.08254802 -6.80808344 6.80808344 0 0 Z " fill="#27B6E9" transform="translate(415,170)"/>
<path d="M0 0 C111.54 0 223.08 0 338 0 C329.60911615 13.18567462 320.73855843 24.7553534 310 36 C309.23816406 36.80308594 308.47632813 37.60617187 307.69140625 38.43359375 C302.16822189 44.11430209 296.27599397 49.16872741 290 54 C289.43410156 54.44182617 288.86820312 54.88365234 288.28515625 55.33886719 C268.12234277 70.91626663 245.09583565 81.14979391 221 89 C219.14568359 89.64001953 219.14568359 89.64001953 217.25390625 90.29296875 C199.76391428 96.10811258 181.24587597 98.11809378 163 100 C161.09154297 100.20109375 161.09154297 100.20109375 159.14453125 100.40625 C147.80415888 101.40077718 136.37328691 101.09110964 125 101 C125 100.67 125 100.34 125 100 C135.395 99.505 135.395 99.505 146 99 C144.453125 98.21625 142.90625 97.4325 141.3125 96.625 C130.20587286 90.54347923 115.55323965 80.74765269 110 69 C110.79881592 68.98541748 111.59763184 68.97083496 112.4206543 68.95581055 C156.11142406 68.06889513 194.60601892 58.24885425 234 39 C234.82661133 38.59700684 235.65322266 38.19401367 236.50488281 37.77880859 C246.37610514 32.90805967 255.82626735 27.4109256 265.1875 21.625 C266.59322266 20.76116699 266.59322266 20.76116699 268.02734375 19.87988281 C276.79481131 14.36691374 284.62322558 8.28258082 293 2 C203.24 2 113.48 2 21 2 C27.70555741 19.88148644 35.74513143 38.76800246 53 49 C56.72935884 49.92539921 60.16914956 50.18524422 64 50 C64 50.33 64 50.66 64 51 C58.69809316 51.04959331 53.39632263 51.085811 48.09423828 51.10986328 C46.29213101 51.11989476 44.4900399 51.13352315 42.68798828 51.15087891 C40.09143065 51.175253 37.49508903 51.18651178 34.8984375 51.1953125 C34.0982016 51.20563507 33.2979657 51.21595764 32.47348022 51.22659302 C27.94201516 51.22749332 24.21447241 50.87962115 20 49 C17.875 46.41796875 17.875 46.41796875 16 43.1875 C15.66315186 42.60782471 15.32630371 42.02814941 14.97924805 41.4309082 C7.58132036 28.46042442 2.11586036 14.81102255 0 0 Z " fill="#028AB7" transform="translate(75,291)"/>
<path d="M0 0 C0.4846875 0.96679688 0.969375 1.93359375 1.46875 2.9296875 C5.59055814 10.99775298 9.89428844 18.23062414 16 25 C16.59039062 25.67160156 17.18078125 26.34320313 17.7890625 27.03515625 C26.13552303 35.96764486 36.83603631 43.11255046 48 48 C48 48.33 48 48.66 48 49 C1.65137306 49.83708273 -36.19603184 40.80505505 -71.05078125 8.93359375 C-71.69402344 8.29550781 -72.33726563 7.65742188 -73 7 C-73 6.67 -73 6.34 -73 6 C-71.97455078 5.98541748 -70.94910156 5.97083496 -69.89257812 5.95581055 C-36.60945048 5.58272309 -36.60945048 5.58272309 -3.8059082 0.38256836 C-2 0 -2 0 0 0 Z " fill="#BBD9DE" transform="translate(175,342)"/>
<path d="M0 0 C0.86157715 -0.00314209 1.7231543 -0.00628418 2.61083984 -0.00952148 C11.5209581 0.15450382 19.39283891 2.44641946 27.375 6.4375 C23.90930932 15.93482541 17.16870828 22.65235225 8.375 27.4375 C5.72408312 28.66457104 3.03817058 29.76289253 0.3125 30.8125 C-0.65997681 31.18894653 -0.65997681 31.18894653 -1.65209961 31.57299805 C-9.89654801 34.541165 -18.51237815 34.6117517 -27.1875 35 C-28.55745117 35.06477539 -28.55745117 35.06477539 -29.95507812 35.13085938 C-32.17827991 35.23561757 -34.40156707 35.33779017 -36.625 35.4375 C-36.860979 36.00557373 -37.09695801 36.57364746 -37.34008789 37.15893555 C-47.96525901 62.62896653 -47.96525901 62.62896653 -52.625 69.4375 C-58.26839413 71.31863138 -64.80170793 67.83502958 -69.96875 65.27734375 C-71.54699735 64.3750261 -73.09124248 63.41352751 -74.625 62.4375 C-75.470625 63.22125 -76.31625 64.005 -77.1875 64.8125 C-80.50425917 67.60681023 -83.42104094 68.51262901 -87.625 69.4375 C-83.98522484 65.75062978 -80.25207796 62.19260301 -76.4375 58.6875 C-75.86797607 58.16236816 -75.29845215 57.63723633 -74.71166992 57.09619141 C-71.31453606 53.96981944 -67.88760371 50.88047197 -64.4375 47.8125 C-56.64845533 40.82006217 -49.4063538 33.4045915 -42.625 25.4375 C-41.64012799 24.3039875 -40.65437128 23.17124337 -39.66796875 22.0390625 C-38.59093392 20.79705873 -37.51411246 19.55486991 -36.4375 18.3125 C-35.92590332 17.72629883 -35.41430664 17.14009766 -34.88720703 16.53613281 C-32.52824744 13.79983229 -30.45269161 11.16925433 -28.4921875 8.1171875 C-24.80730175 2.82883682 -18.10746872 2.17946217 -12.07592773 0.86962891 C-8.04946839 0.15971427 -4.08237223 0.01244871 0 0 Z " fill="#00A9D8" transform="translate(469.625,213.5625)"/>
<path d="M0 0 C13.2 0 26.4 0 40 0 C40 12.87 40 25.74 40 39 C26.8 39 13.6 39 0 39 C0 26.13 0 13.26 0 0 Z " fill="#25B4DD" transform="translate(158,211)"/>
<path d="M0 0 C13.2 0 26.4 0 40 0 C40 12.87 40 25.74 40 39 C26.8 39 13.6 39 0 39 C0 26.13 0 13.26 0 0 Z " fill="#06A1C4" transform="translate(158,166)"/>
<path d="M0 0 C12.87 0 25.74 0 39 0 C39 12.87 39 25.74 39 39 C26.13 39 13.26 39 0 39 C0 26.13 0 13.26 0 0 Z " fill="#03A6CC" transform="translate(294,211)"/>
<path d="M0 0 C12.87 0 25.74 0 39 0 C39 12.87 39 25.74 39 39 C26.13 39 13.26 39 0 39 C0 26.13 0 13.26 0 0 Z " fill="#24B9E2" transform="translate(249,211)"/>
<path d="M0 0 C12.87 0 25.74 0 39 0 C39 12.87 39 25.74 39 39 C26.13 39 13.26 39 0 39 C0 26.13 0 13.26 0 0 Z " fill="#02A8CE" transform="translate(204,211)"/>
<path d="M0 0 C12.87 0 25.74 0 39 0 C39 12.87 39 25.74 39 39 C26.13 39 13.26 39 0 39 C0 26.13 0 13.26 0 0 Z " fill="#01AAD0" transform="translate(114,211)"/>
<path d="M0 0 C12.87 0 25.74 0 39 0 C39 12.87 39 25.74 39 39 C26.13 39 13.26 39 0 39 C0 26.13 0 13.26 0 0 Z " fill="#04A4C9" transform="translate(249,166)"/>
<path d="M0 0 C12.87 0 25.74 0 39 0 C39 12.87 39 25.74 39 39 C26.13 39 13.26 39 0 39 C0 26.13 0 13.26 0 0 Z " fill="#23BEE8" transform="translate(204,166)"/>
<path d="M0 0 C12.87 0 25.74 0 39 0 C39 12.87 39 25.74 39 39 C26.13 39 13.26 39 0 39 C0 26.13 0 13.26 0 0 Z " fill="#24B9E2" transform="translate(249,121)"/>
<path d="M0 0 C5.61 0 11.22 0 17 0 C17.144375 2.59875 17.28875 5.1975 17.4375 7.875 C17.80343195 14.27146599 18.29229971 20.63069735 19 27 C15.23508833 28.25497056 11.72793525 28.10661648 7.8125 28.0625 C5.234375 28.041875 2.65625 28.02125 0 28 C0 18.76 0 9.52 0 0 Z " fill="#00A8D8" transform="translate(74,257)"/>
<path d="M0 0 C1.33838733 2.45570175 2.67086232 4.91429916 4 7.375 C4.3815625 8.07367188 4.763125 8.77234375 5.15625 9.4921875 C8 14.7734375 8 14.7734375 8 17 C-6.5828739 17.94083057 -22.0131912 13.4934044 -35 7 C-35 6.34 -35 5.68 -35 5 C-33.98015015 4.87939209 -33.98015015 4.87939209 -32.93969727 4.75634766 C-29.81338598 4.38392108 -26.68795937 4.00450703 -23.5625 3.625 C-22.49322266 3.49867188 -21.42394531 3.37234375 -20.32226562 3.2421875 C-13.72941264 2.4357223 -6.55417817 0 0 0 Z " fill="#CEEAEE" transform="translate(175,342)"/>
<path d="M0 0 C3.6578218 2.03993908 5.66946174 3.50419262 8 7 C8.48256365 11.26264558 8.26873267 13.49132744 6.25 17.3125 C3.24080771 20.90681302 1.68299118 21.82095839 -2.9375 22.3125 C-6.43355571 21.95575962 -8.20520785 21.09609412 -11 19 C-13.81725233 14.7741215 -13.79958384 10.96375312 -13 6 C-9.14049112 1.02326486 -6.24979557 -0.60094188 0 0 Z " fill="#C2E2E7" transform="translate(198,313)"/>
<path d="M0 0 C0.33 1.65 0.66 3.3 1 5 C2.65 5 4.3 5 6 5 C5.67815583 7.89659753 5.38591512 10.31897331 3.9375 12.875 C0.76086848 14.71949572 -2.4339091 14.65378333 -6 14 C-8 12.4375 -8 12.4375 -9 10 C-9.62376238 4.07425743 -9.62376238 4.07425743 -7.875 1.0625 C-5.214973 -0.44484863 -2.99793795 -0.19986253 0 0 Z " fill="#3F5259" transform="translate(197,317)"/>
<path d="M0 0 C1.32 0 2.64 0 4 0 C4 10.89 4 21.78 4 33 C2.68 33 1.36 33 0 33 C0 22.11 0 11.22 0 0 Z " fill="#2D616E" transform="translate(236,214)"/>
<path d="M0 0 C1.32 0 2.64 0 4 0 C4 10.89 4 21.78 4 33 C2.68 33 1.36 33 0 33 C0 22.11 0 11.22 0 0 Z " fill="#2D616E" transform="translate(230,214)"/>
<path d="M0 0 C1.32 0 2.64 0 4 0 C4 10.89 4 21.78 4 33 C2.68 33 1.36 33 0 33 C0 22.11 0 11.22 0 0 Z " fill="#2D616E" transform="translate(224,214)"/>
<path d="M0 0 C1.32 0 2.64 0 4 0 C4 10.89 4 21.78 4 33 C2.68 33 1.36 33 0 33 C0 22.11 0 11.22 0 0 Z " fill="#2D616E" transform="translate(146,214)"/>
<path d="M0 0 C1.32 0 2.64 0 4 0 C4 10.89 4 21.78 4 33 C2.68 33 1.36 33 0 33 C0 22.11 0 11.22 0 0 Z " fill="#2D616E" transform="translate(140,214)"/>
<path d="M0 0 C1.32 0 2.64 0 4 0 C4 10.89 4 21.78 4 33 C2.68 33 1.36 33 0 33 C0 22.11 0 11.22 0 0 Z " fill="#2D616E" transform="translate(134,214)"/>
<path d="M0 0 C1.32 0 2.64 0 4 0 C4 10.89 4 21.78 4 33 C2.68 33 1.36 33 0 33 C0 22.11 0 11.22 0 0 Z " fill="#2D616E" transform="translate(128,214)"/>
<path d="M0 0 C1.32 0 2.64 0 4 0 C4 10.89 4 21.78 4 33 C2.68 33 1.36 33 0 33 C0 22.11 0 11.22 0 0 Z " fill="#2D616E" transform="translate(122,214)"/>
<path d="M0 0 C1.32 0 2.64 0 4 0 C4 10.89 4 21.78 4 33 C2.68 33 1.36 33 0 33 C0 22.11 0 11.22 0 0 Z " fill="#356674" transform="translate(236,169)"/>
<path d="M0 0 C1.32 0 2.64 0 4 0 C4 10.89 4 21.78 4 33 C2.68 33 1.36 33 0 33 C0 22.11 0 11.22 0 0 Z " fill="#356674" transform="translate(230,169)"/>
<path d="M0 0 C1.32 0 2.64 0 4 0 C4 10.89 4 21.78 4 33 C2.68 33 1.36 33 0 33 C0 22.11 0 11.22 0 0 Z " fill="#356674" transform="translate(224,169)"/>
<path d="M0 0 C0.99 0 1.98 0 3 0 C3 10.89 3 21.78 3 33 C2.01 33 1.02 33 0 33 C0 22.11 0 11.22 0 0 Z " fill="#384E56" transform="translate(258,169)"/>
<path d="M0 0 C0.99 0 1.98 0 3 0 C3 10.89 3 21.78 3 33 C2.01 33 1.02 33 0 33 C0 22.11 0 11.22 0 0 Z " fill="#384E56" transform="translate(252,169)"/>
<path d="M0 0 C0.99 0 1.98 0 3 0 C3 10.89 3 21.78 3 33 C2.01 33 1.02 33 0 33 C0 22.11 0 11.22 0 0 Z " fill="#394F56" transform="translate(219,169)"/>
<path d="M0 0 C0.99 0 1.98 0 3 0 C3 10.89 3 21.78 3 33 C2.01 33 1.02 33 0 33 C0 22.11 0 11.22 0 0 Z " fill="#394F56" transform="translate(213,169)"/>
<path d="M0 0 C0.99 0 1.98 0 3 0 C3 10.89 3 21.78 3 33 C2.01 33 1.02 33 0 33 C0 22.11 0 11.22 0 0 Z " fill="#394F56" transform="translate(207,169)"/>
<path d="M0 0 C0.99 0 1.98 0 3 0 C3 10.89 3 21.78 3 33 C2.01 33 1.02 33 0 33 C0 22.11 0 11.22 0 0 Z " fill="#384E56" transform="translate(162,169)"/>
<path d="M0 0 C0.99 0 1.98 0 3 0 C3 10.56 3 21.12 3 32 C2.01 32 1.02 32 0 32 C0 21.44 0 10.88 0 0 Z " fill="#3A4D54" transform="translate(327,214)"/>
<path d="M0 0 C0.99 0 1.98 0 3 0 C3 10.56 3 21.12 3 32 C2.01 32 1.02 32 0 32 C0 21.44 0 10.88 0 0 Z " fill="#3A4D54" transform="translate(321,214)"/>
<path d="M0 0 C0.99 0 1.98 0 3 0 C3 10.56 3 21.12 3 32 C2.01 32 1.02 32 0 32 C0 21.44 0 10.88 0 0 Z " fill="#3A4D54" transform="translate(315,214)"/>
<path d="M0 0 C0.99 0 1.98 0 3 0 C3 10.56 3 21.12 3 32 C2.01 32 1.02 32 0 32 C0 21.44 0 10.88 0 0 Z " fill="#3A4D54" transform="translate(309,214)"/>
<path d="M0 0 C0.99 0 1.98 0 3 0 C3 10.56 3 21.12 3 32 C2.01 32 1.02 32 0 32 C0 21.44 0 10.88 0 0 Z " fill="#3A4D54" transform="translate(303,214)"/>
<path d="M0 0 C0.99 0 1.98 0 3 0 C3 10.56 3 21.12 3 32 C2.01 32 1.02 32 0 32 C0 21.44 0 10.88 0 0 Z " fill="#36535C" transform="translate(297,214)"/>
<path d="M0 0 C0.99 0 1.98 0 3 0 C3 10.56 3 21.12 3 32 C2.01 32 1.02 32 0 32 C0 21.44 0 10.88 0 0 Z " fill="#38555E" transform="translate(282,214)"/>
<path d="M0 0 C0.99 0 1.98 0 3 0 C3 10.56 3 21.12 3 32 C2.01 32 1.02 32 0 32 C0 21.44 0 10.88 0 0 Z " fill="#38555E" transform="translate(276,214)"/>
<path d="M0 0 C0.99 0 1.98 0 3 0 C3 10.56 3 21.12 3 32 C2.01 32 1.02 32 0 32 C0 21.44 0 10.88 0 0 Z " fill="#38555E" transform="translate(270,214)"/>
<path d="M0 0 C0.99 0 1.98 0 3 0 C3 10.56 3 21.12 3 32 C2.01 32 1.02 32 0 32 C0 21.44 0 10.88 0 0 Z " fill="#38555E" transform="translate(264,214)"/>
<path d="M0 0 C0.99 0 1.98 0 3 0 C3 10.56 3 21.12 3 32 C2.01 32 1.02 32 0 32 C0 21.44 0 10.88 0 0 Z " fill="#3A4D54" transform="translate(258,214)"/>
<path d="M0 0 C0.99 0 1.98 0 3 0 C3 10.56 3 21.12 3 32 C2.01 32 1.02 32 0 32 C0 21.44 0 10.88 0 0 Z " fill="#3A4D54" transform="translate(252,214)"/>
<path d="M0 0 C0.99 0 1.98 0 3 0 C3 10.56 3 21.12 3 32 C2.01 32 1.02 32 0 32 C0 21.44 0 10.88 0 0 Z " fill="#3A4D54" transform="translate(219,214)"/>
<path d="M0 0 C0.99 0 1.98 0 3 0 C3 10.56 3 21.12 3 32 C2.01 32 1.02 32 0 32 C0 21.44 0 10.88 0 0 Z " fill="#3A4D54" transform="translate(213,214)"/>
<path d="M0 0 C0.99 0 1.98 0 3 0 C3 10.56 3 21.12 3 32 C2.01 32 1.02 32 0 32 C0 21.44 0 10.88 0 0 Z " fill="#3A4D54" transform="translate(207,214)"/>
<path d="M0 0 C0.99 0 1.98 0 3 0 C3 10.56 3 21.12 3 32 C2.01 32 1.02 32 0 32 C0 21.44 0 10.88 0 0 Z " fill="#38555E" transform="translate(191,214)"/>
<path d="M0 0 C0.99 0 1.98 0 3 0 C3 10.56 3 21.12 3 32 C2.01 32 1.02 32 0 32 C0 21.44 0 10.88 0 0 Z " fill="#38555E" transform="translate(185,214)"/>
<path d="M0 0 C0.99 0 1.98 0 3 0 C3 10.56 3 21.12 3 32 C2.01 32 1.02 32 0 32 C0 21.44 0 10.88 0 0 Z " fill="#38555E" transform="translate(180,214)"/>
<path d="M0 0 C0.99 0 1.98 0 3 0 C3 10.56 3 21.12 3 32 C2.01 32 1.02 32 0 32 C0 21.44 0 10.88 0 0 Z " fill="#38555E" transform="translate(174,214)"/>
<path d="M0 0 C0.99 0 1.98 0 3 0 C3 10.56 3 21.12 3 32 C2.01 32 1.02 32 0 32 C0 21.44 0 10.88 0 0 Z " fill="#38555E" transform="translate(168,214)"/>
<path d="M0 0 C0.99 0 1.98 0 3 0 C3 10.56 3 21.12 3 32 C2.01 32 1.02 32 0 32 C0 21.44 0 10.88 0 0 Z " fill="#3A4D54" transform="translate(162,214)"/>
<path d="M0 0 C0.99 0 1.98 0 3 0 C3 10.56 3 21.12 3 32 C2.01 32 1.02 32 0 32 C0 21.44 0 10.88 0 0 Z " fill="#3A4D54" transform="translate(117,214)"/>
<path d="M0 0 C0.99 0 1.98 0 3 0 C3 10.56 3 21.12 3 32 C2.01 32 1.02 32 0 32 C0 21.44 0 10.88 0 0 Z " fill="#35535D" transform="translate(282,169)"/>
<path d="M0 0 C0.99 0 1.98 0 3 0 C3 10.56 3 21.12 3 32 C2.01 32 1.02 32 0 32 C0 21.44 0 10.88 0 0 Z " fill="#35535D" transform="translate(276,169)"/>
<path d="M0 0 C0.99 0 1.98 0 3 0 C3 10.56 3 21.12 3 32 C2.01 32 1.02 32 0 32 C0 21.44 0 10.88 0 0 Z " fill="#35535D" transform="translate(270,169)"/>
<path d="M0 0 C0.99 0 1.98 0 3 0 C3 10.56 3 21.12 3 32 C2.01 32 1.02 32 0 32 C0 21.44 0 10.88 0 0 Z " fill="#35535D" transform="translate(264,169)"/>
<path d="M0 0 C0.99 0 1.98 0 3 0 C3 10.56 3 21.12 3 32 C2.01 32 1.02 32 0 32 C0 21.44 0 10.88 0 0 Z " fill="#35535D" transform="translate(191,169)"/>
<path d="M0 0 C0.99 0 1.98 0 3 0 C3 10.56 3 21.12 3 32 C2.01 32 1.02 32 0 32 C0 21.44 0 10.88 0 0 Z " fill="#35535D" transform="translate(185,169)"/>
<path d="M0 0 C0.99 0 1.98 0 3 0 C3 10.56 3 21.12 3 32 C2.01 32 1.02 32 0 32 C0 21.44 0 10.88 0 0 Z " fill="#35535D" transform="translate(180,169)"/>
<path d="M0 0 C0.99 0 1.98 0 3 0 C3 10.56 3 21.12 3 32 C2.01 32 1.02 32 0 32 C0 21.44 0 10.88 0 0 Z " fill="#35535D" transform="translate(174,169)"/>
<path d="M0 0 C0.99 0 1.98 0 3 0 C3 10.56 3 21.12 3 32 C2.01 32 1.02 32 0 32 C0 21.44 0 10.88 0 0 Z " fill="#35535D" transform="translate(168,169)"/>
<path d="M0 0 C0.99 0 1.98 0 3 0 C3 10.56 3 21.12 3 32 C2.01 32 1.02 32 0 32 C0 21.44 0 10.88 0 0 Z " fill="#38555E" transform="translate(282,124)"/>
<path d="M0 0 C0.99 0 1.98 0 3 0 C3 10.56 3 21.12 3 32 C2.01 32 1.02 32 0 32 C0 21.44 0 10.88 0 0 Z " fill="#38555E" transform="translate(276,124)"/>
<path d="M0 0 C0.99 0 1.98 0 3 0 C3 10.56 3 21.12 3 32 C2.01 32 1.02 32 0 32 C0 21.44 0 10.88 0 0 Z " fill="#38555E" transform="translate(270,124)"/>
<path d="M0 0 C0.99 0 1.98 0 3 0 C3 10.56 3 21.12 3 32 C2.01 32 1.02 32 0 32 C0 21.44 0 10.88 0 0 Z " fill="#38555E" transform="translate(264,124)"/>
<path d="M0 0 C0.99 0 1.98 0 3 0 C3 10.56 3 21.12 3 32 C2.01 32 1.02 32 0 32 C0 21.44 0 10.88 0 0 Z " fill="#3A4D54" transform="translate(258,124)"/>
<path d="M0 0 C0.99 0 1.98 0 3 0 C3 10.56 3 21.12 3 32 C2.01 32 1.02 32 0 32 C0 21.44 0 10.88 0 0 Z " fill="#3A4D54" transform="translate(252,124)"/>
</svg>
