<?xml version="1.0" encoding="UTF-8"?>
<svg version="1.1" xmlns="http://www.w3.org/2000/svg" width="374" height="320">
<path d="M0 0 C1.68954016 -0.00134987 3.37907993 -0.00329308 5.06861877 -0.00579834 C8.59794843 -0.00873524 12.12717637 -0.00449887 15.65649414 0.00488281 C20.15615931 0.01626768 24.65558557 0.00971486 29.15524197 -0.00226212 C32.64103458 -0.00952709 36.1267716 -0.00717145 39.61256599 -0.00200653 C41.27057995 -0.00068237 42.92859913 -0.00227395 44.58660698 -0.00696564 C59.98260162 -0.04097623 74.24243267 0.92217253 86.06640625 12.078125 C94.54471611 21.34797831 97.60863027 31.81495494 98.20703125 44.109375 C98.24908691 44.89538086 98.29114258 45.68138672 98.33447266 46.49121094 C98.43684417 48.41579544 98.53345907 50.34068467 98.62890625 52.265625 C99.56914139 52.26927063 100.50937653 52.27291626 101.47810364 52.27667236 C110.37814728 52.31375883 119.27784928 52.37167922 128.17763233 52.44952774 C132.75214294 52.48888521 137.32646442 52.52113082 141.90112305 52.53662109 C146.32341379 52.55186549 150.74518419 52.58644721 155.16724205 52.63393402 C156.84671164 52.6486681 158.52625556 52.65666139 160.20578957 52.65750885 C175.42816862 52.6729018 186.05515546 55.21526833 197.34375 65.88671875 C205.13973509 74.15879453 207.77879221 84.27359608 207.77607727 95.34095764 C207.77975396 96.1493899 207.78343065 96.95782215 207.78721875 97.79075235 C207.79822389 100.49730818 207.80209406 103.20382557 207.8059082 105.91040039 C207.81217532 107.85223512 207.81882234 109.79406865 207.82582092 111.73590088 C207.84683674 118.11168588 207.857222 124.48747105 207.8671875 130.86328125 C207.87123618 133.06117706 207.87535314 135.25907275 207.87953758 137.45696831 C207.89858495 147.78543112 207.91281612 158.11388681 207.92114955 168.4423638 C207.93091623 180.34949435 207.95722292 192.25643873 207.99765044 204.16350371 C208.02785302 213.37645626 208.04262242 222.58935558 208.04593056 231.80235666 C208.04827658 237.30022253 208.05717855 242.79788939 208.08239174 248.29570198 C208.10574949 253.47253542 208.10987473 258.64903991 208.09963036 263.82591248 C208.09913673 265.71886734 208.10540554 267.61183882 208.1191864 269.50474358 C208.22523926 284.94423202 206.46774958 297.37665152 195.62890625 309.265625 C185.59588345 318.3527736 173.92477597 320.87689727 160.72558594 320.77355957 C159.48239971 320.77979953 158.23921349 320.7860395 156.95835495 320.79246855 C153.5422401 320.80557101 150.12701729 320.80098138 146.71095848 320.78852367 C143.0135341 320.77941686 139.31618374 320.79347061 135.61877441 320.80444336 C128.38927743 320.82217351 121.15994712 320.81841327 113.93044376 320.8067928 C108.05171917 320.79773698 102.1730411 320.79654374 96.29431152 320.80088806 C95.03638263 320.80180746 95.03638263 320.80180746 93.75304103 320.80274543 C92.0490802 320.80402441 90.34511938 320.80532127 88.64115858 320.8066358 C72.68577387 320.81802547 56.73048128 320.80495326 40.77511168 320.78343433 C27.10263251 320.76556481 13.43028922 320.76866937 -0.2421875 320.78710938 C-16.14283355 320.80854464 -32.04339898 320.81692698 -47.94405746 320.80466032 C-49.64153797 320.8033862 -51.33901849 320.80212872 -53.03649902 320.80088806 C-53.87156015 320.80027096 -54.70662127 320.79965386 -55.56698728 320.79901806 C-61.43452986 320.79557312 -67.30202104 320.80137498 -73.16955566 320.81080627 C-80.32605291 320.82205721 -87.4823748 320.81892147 -94.63885212 320.7976833 C-98.28600012 320.78721428 -101.93285639 320.78297947 -105.58000183 320.79627991 C-109.54275517 320.8105121 -113.50503709 320.79344985 -117.46777344 320.77355957 C-118.60748219 320.78248246 -119.74719093 320.79140534 -120.92143631 320.80059862 C-132.87257731 320.68468169 -142.6023944 317.49367237 -151.37109375 309.265625 C-152.00917969 308.66878906 -152.64726562 308.07195312 -153.3046875 307.45703125 C-161.93065908 298.53425205 -164.52588123 287.33227193 -164.51153564 275.25985718 C-164.51599233 274.0765538 -164.51599233 274.0765538 -164.52053905 272.86934531 C-164.52918682 270.23498887 -164.53073097 267.60067808 -164.53222656 264.96630859 C-164.53685756 263.07358707 -164.5418826 261.18086648 -164.54727173 259.28814697 C-164.56037174 254.15149707 -164.56683617 249.01486023 -164.57128239 243.87819624 C-164.57421738 240.66556721 -164.57832302 237.45294172 -164.58278656 234.24031448 C-164.59645603 224.1788209 -164.60612502 214.11733544 -164.60998845 204.05583322 C-164.61446604 192.46003809 -164.63200242 180.86436102 -164.66098905 169.26860178 C-164.68264225 160.29341816 -164.6926947 151.31826767 -164.69402957 142.34305823 C-164.69507511 136.98832698 -164.70092938 131.63370678 -164.71884918 126.27900314 C-164.73539253 121.23762232 -164.73745506 116.19643531 -164.72871017 111.15503693 C-164.72794311 109.31207635 -164.73223856 107.46910509 -164.74216843 105.62617111 C-164.82238782 89.80062187 -163.54528315 76.52597636 -152.5234375 64.19921875 C-144.91858678 56.96914506 -135.25610265 53.10013597 -124.87036133 53.15209961 C-123.72853645 53.15188057 -123.72853645 53.15188057 -122.56364441 53.1516571 C-120.04760895 53.15235376 -117.53164753 53.16013462 -115.015625 53.16796875 C-113.27113383 53.16983381 -111.52664215 53.1712573 -109.78215027 53.17225647 C-105.19050653 53.17607474 -100.59889442 53.18589916 -96.00726318 53.19696045 C-91.32190377 53.20718939 -86.63653924 53.21175727 -81.95117188 53.21679688 C-72.7577986 53.22752202 -63.56444881 53.24459019 -54.37109375 53.265625 C-54.38958374 51.75887207 -54.38958374 51.75887207 -54.40844727 50.22167969 C-54.41842123 48.87695524 -54.42808911 47.5322285 -54.4375 46.1875 C-54.45598999 44.21668457 -54.45598999 44.21668457 -54.47485352 42.20605469 C-54.16496992 30.43776941 -50.43553247 20.90882758 -42.48828125 12.203125 C-30.20311501 0.66402149 -15.95078996 -0.04507236 0 0 Z M-35.37109375 23.265625 C-40.15812861 30.41509265 -41.5417876 35.88552873 -41.49609375 44.453125 C-41.49996094 45.18982422 -41.50382812 45.92652344 -41.5078125 46.68554688 C-41.83391462 50.2710656 -41.83391462 50.2710656 -40.37109375 53.265625 C-38.75153035 53.36165522 -37.12776292 53.38750355 -35.50535583 53.38587952 C-33.92563995 53.38794151 -33.92563995 53.38794151 -32.31401062 53.39004517 C-31.14876358 53.38644989 -29.98351654 53.38285461 -28.78295898 53.37915039 C-26.95394547 53.37936943 -26.95394547 53.37936943 -25.08798218 53.3795929 C-21.73481864 53.37901393 -18.38171601 53.37398468 -15.02856326 53.36701894 C-11.52783813 53.36078483 -8.02711227 53.36018156 -4.52638245 53.35899353 C2.10700281 53.35588038 8.74037166 53.34766722 15.37374967 53.33764404 C22.92380832 53.32648239 30.47386774 53.32097232 38.02393258 53.31594861 C53.55893331 53.30548459 69.09391767 53.28788547 84.62890625 53.265625 C84.71065421 50.43169574 84.7697561 47.60017681 84.81640625 44.765625 C84.84154297 43.97414063 84.86667969 43.18265625 84.89257812 42.3671875 C85.00521388 33.20614587 82.08292818 26.93935009 75.8203125 20.25 C69.35163577 14.39244603 62.47799054 13.12041289 53.98974609 13.08862305 C52.84253586 13.07876625 52.84253586 13.07876625 51.67214966 13.06871033 C49.14471325 13.04902555 46.61733623 13.03732343 44.08984375 13.02734375 C43.22338856 13.02326822 42.35693336 13.0191927 41.46422195 13.01499367 C36.8750762 12.99415012 32.28596016 12.97984287 27.69677734 12.97045898 C22.97599959 12.95941824 18.25569626 12.92504057 13.53508568 12.88528728 C9.8888771 12.8590342 6.2427799 12.85075931 2.59648514 12.84717751 C0.85749749 12.84233136 -0.88148585 12.83077416 -2.6203804 12.81213951 C-15.03863934 12.68736756 -26.68218051 13.20594174 -35.37109375 23.265625 Z M-144.37109375 74.265625 C-152.12780777 85.51651916 -152.05186285 95.48340874 -152.43530273 108.84326172 C-152.51703496 111.11201891 -152.63288958 113.37982098 -152.78393555 115.64501953 C-153.99035447 128.14722818 -153.99035447 128.14722818 -149.70718384 139.43032837 C-145.48264431 143.25549767 -140.69334841 145.84479352 -135.55355835 148.24468994 C-132.86910039 149.50045246 -130.36586502 151.00012361 -127.828125 152.52734375 C-126.2874729 153.35018471 -124.73931706 154.15914697 -123.18359375 154.953125 C-122.31959961 155.3975293 -121.45560547 155.84193359 -120.56542969 156.29980469 C-98.67569202 167.30358024 -75.39042466 174.06380401 -51.49609375 179.140625 C-50.54033447 179.34397461 -49.5845752 179.54732422 -48.59985352 179.75683594 C-42.21144531 181.05009496 -35.8709511 181.80101198 -29.37109375 182.265625 C-28.91589355 181.55937988 -28.46069336 180.85313477 -27.99169922 180.12548828 C-23.10307234 172.62979013 -17.95355775 167.21871862 -9.37109375 164.265625 C-6.49681091 163.98474121 -6.49681091 163.98474121 -3.30249023 163.94335938 C-2.10031357 163.92414429 -0.8981369 163.9049292 0.34046936 163.88513184 C2.27955421 163.8723822 2.27955421 163.8723822 4.2578125 163.859375 C4.9222682 163.85372025 5.5867239 163.84806549 6.27131462 163.84223938 C9.79295291 163.81231589 13.31442888 163.79382331 16.83618164 163.78515625 C20.44179126 163.77424088 24.04586946 163.7262905 27.65100193 163.66921234 C30.4506383 163.63160752 33.24992015 163.62152982 36.04978752 163.6184845 C38.01494337 163.60962463 39.97990801 163.57249364 41.94471741 163.5345459 C50.74668862 163.57770009 57.22759343 165.42206704 64.62890625 170.265625 C67.296875 172.96875 67.296875 172.96875 68.81640625 175.515625 C69.34621094 176.36640625 69.87601563 177.2171875 70.421875 178.09375 C71.18611394 179.46888545 71.92533555 180.8584836 72.62890625 182.265625 C81.18457462 181.75684174 89.38370025 180.52728629 97.75390625 178.703125 C99.56773804 178.30830933 99.56773804 178.30830933 101.41821289 177.90551758 C125.7341888 172.44450523 148.40411577 164.16365095 170.56640625 152.828125 C171.36989502 152.42231201 172.17338379 152.01649902 173.0012207 151.59838867 C174.64059012 150.73518603 176.25620437 149.82567907 177.84790039 148.87744141 C180.00283546 147.62848334 182.07206662 146.60954756 184.32983398 145.58740234 C188.51622649 143.46767355 192.05616755 141.28131711 194.62890625 137.265625 C196.73958038 130.15779649 196.26307754 122.60212813 195.9597168 115.27099609 C195.81671505 111.77317812 195.7753158 108.28562199 195.75195312 104.78515625 C195.71034587 102.53894506 195.66301011 100.29283117 195.609375 98.046875 C195.59126266 97.01429565 195.57315033 95.98171631 195.55448914 94.91784668 C195.14161966 85.8143972 192.45205706 78.59793821 185.69140625 72.328125 C179.3266799 67.24352218 173.49462576 65.14755623 165.3904171 65.13140392 C163.82858194 65.12471716 163.82858194 65.12471716 162.23519456 65.11789531 C160.52904196 65.11817185 160.52904196 65.11817185 158.78842163 65.11845398 C156.96830738 65.11293895 156.96830738 65.11293895 155.11142313 65.1073125 C151.74627399 65.09820262 148.38117355 65.0935797 145.01601672 65.09092319 C141.38531411 65.08701283 137.75462552 65.07743506 134.12393188 65.06871033 C125.3576298 65.04896731 116.5913266 65.03888278 107.82500786 65.02998254 C103.69420639 65.02559639 99.5634062 65.02023045 95.43260574 65.01499367 C81.69675907 64.9979841 67.96091319 64.98349036 54.2250576 64.97624493 C50.66224542 64.97433512 47.09943325 64.97241477 43.53662109 64.97045898 C42.65113081 64.96997524 41.76564053 64.9694915 40.85331722 64.9689931 C26.51180414 64.96069434 12.17037452 64.93535881 -2.17110212 64.90287831 C-16.90328687 64.86978557 -31.63542924 64.85179419 -46.36765134 64.84860069 C-54.63598837 64.84643772 -62.90420368 64.83772027 -71.17250443 64.81213951 C-78.21462426 64.79040228 -85.25659279 64.78239694 -92.29874237 64.79210629 C-95.8890306 64.79664219 -99.47900685 64.79480667 -103.06925201 64.77534485 C-106.96919872 64.7543876 -110.8687189 64.76472677 -114.76870728 64.77787781 C-115.89275801 64.76690856 -117.01680875 64.75593932 -118.17492163 64.74463767 C-127.97148599 64.82417751 -137.45868132 66.87095124 -144.37109375 74.265625 Z M-151.37109375 153.265625 C-151.46467371 170.32081207 -151.53513968 187.37591864 -151.57834244 204.43130398 C-151.59893841 212.35101865 -151.62700196 220.27057349 -151.67285156 228.19018555 C-151.71281053 235.09561765 -151.73854811 242.00093395 -151.74744773 248.90647846 C-151.75264725 252.56052909 -151.76480525 256.21424854 -151.79401398 259.86819267 C-151.82641188 263.9545121 -151.82704738 268.04026142 -151.82519531 272.12670898 C-151.83957642 273.32864899 -151.85395752 274.53058899 -151.86877441 275.76895142 C-151.82051319 285.62577539 -149.41714529 293.16105701 -142.48954582 300.3345114 C-135.14426718 307.03023404 -127.2858535 307.99381613 -117.69482422 307.90054321 C-115.83049146 307.91224314 -115.83049146 307.91224314 -113.92849541 307.92417943 C-110.50382647 307.94059305 -107.08054195 307.93479587 -103.65595913 307.91924834 C-99.9530674 307.90788744 -96.25029248 307.92542089 -92.54742432 307.93914795 C-85.30358911 307.96133464 -78.06001352 307.95659967 -70.81616831 307.94208474 C-64.92688276 307.93077444 -59.03766977 307.92926933 -53.14837646 307.93470383 C-51.88917493 307.93585307 -51.88917493 307.93585307 -50.60453498 307.93702554 C-48.89895962 307.93862423 -47.19338427 307.9402453 -45.48780894 307.9418885 C-29.50958282 307.95613261 -13.53150032 307.93977431 2.44670224 307.91288666 C16.14487861 307.89054908 29.84284308 307.89442959 43.54101562 307.91748047 C59.46361464 307.94426216 75.38608789 307.95475944 91.30870628 307.93941915 C93.00786716 307.93782647 94.70702805 307.93625462 96.40618896 307.93470383 C97.24212149 307.93393245 98.07805401 307.93316107 98.93931782 307.93236632 C104.81880861 307.92805642 110.69821936 307.93532053 116.57769775 307.94710159 C123.74678042 307.96115149 130.9155895 307.95727457 138.08464098 307.93069787 C141.73968333 307.9175929 145.3942702 307.91234984 149.04930878 307.92894363 C153.0173401 307.94668543 156.98463206 307.92544509 160.95263672 307.90054321 C162.09953539 307.91169682 163.24643406 307.92285043 164.42808723 307.93434203 C173.69812313 307.82166371 180.56447988 305.20522469 187.50390625 299.015625 C194.5514891 291.27453365 195.21686513 283.16289074 195.17480469 273.03491211 C195.18514236 271.73637299 195.19548004 270.43783386 195.20613098 269.09994507 C195.23382768 265.56538066 195.23739933 262.03116738 195.23641109 258.49651027 C195.23955438 254.79288804 195.2652018 251.0894207 195.28839111 247.38587952 C195.32884687 240.38444448 195.34926718 233.38310234 195.36236501 226.38156849 C195.37827053 218.40561234 195.41670097 210.42981347 195.45695829 202.45394886 C195.53921443 186.05788622 195.59339557 169.66185696 195.62890625 153.265625 C192.47474801 153.99556558 190.13064515 154.99717772 187.34765625 156.671875 C186.51693604 157.16381348 185.68621582 157.65575195 184.83032227 158.16259766 C183.49312134 158.95609619 183.49312134 158.95609619 182.12890625 159.765625 C151.60442458 177.43203889 116.95337334 188.69781021 81.96777344 193.24194336 C79.25169434 193.62522396 77.07258491 193.96672569 74.7734375 195.515625 C73.29418725 197.77741377 72.55985351 199.99980699 71.75390625 202.578125 C68.55461781 211.58352951 64.53568348 214.85269848 56.08502197 218.97329712 C50.1833548 221.18007769 44.48480522 221.10284072 38.24609375 221.02734375 C36.89714214 221.02885155 35.54819148 221.03229469 34.19924927 221.03755188 C31.39361205 221.04184795 28.58913846 221.02531579 25.78369141 220.99291992 C22.21504898 220.9530622 18.64857518 220.96249473 15.07986259 220.98715496 C12.30163242 221.0014359 9.52389636 220.99117638 6.74570084 220.97364235 C4.79946567 220.9650786 2.85317634 220.97527879 0.9069519 220.98600769 C-7.87236735 220.84729393 -14.91414734 219.38646641 -21.50881958 213.28910828 C-26.61019013 207.90795166 -29.00937641 202.53224388 -30.37109375 195.265625 C-32.20994141 194.93691406 -32.20994141 194.93691406 -34.0859375 194.6015625 C-72.97442032 187.5058783 -110.88919159 177.17467876 -144.67749023 156.05859375 C-147.78753879 153.95141022 -147.78753879 153.95141022 -151.37109375 153.265625 Z M-14.74609375 181.703125 C-17.95678866 186.7661439 -18.7562305 190.13216777 -17.91015625 196.0546875 C-16.55663957 201.60606752 -12.93711746 205.10453166 -8.37109375 208.265625 C-5.37528424 209.26422817 -3.33241695 209.40942134 -0.20043945 209.44262695 C0.85463303 209.45546219 1.90970551 209.46829742 2.99674988 209.48152161 C4.70765556 209.49260201 4.70765556 209.49260201 6.453125 209.50390625 C8.21617729 209.51601387 8.21617729 209.51601387 10.0148468 209.52836609 C12.50556972 209.54220625 14.99631159 209.5529287 17.48706055 209.56079102 C21.28406065 209.57797858 25.08018443 209.62186428 28.87695312 209.66601562 C31.29817069 209.6761449 33.71939565 209.68466027 36.140625 209.69140625 C37.27110764 209.70891434 38.40159027 209.72642242 39.56632996 209.74446106 C47.08236208 209.7239269 52.84302578 208.87798595 58.50390625 203.4765625 C61.76866901 198.14865106 62.74439261 193.46856317 61.62890625 187.265625 C59.23950804 182.39492866 55.94430588 179.41227056 51.62890625 176.265625 C48.58076707 175.24509024 45.72919667 175.12399734 42.52832031 175.08862305 C41.51336487 175.07578781 40.49840942 175.06295258 39.45269775 175.04972839 C38.36100281 175.04234146 37.26930786 175.03495453 36.14453125 175.02734375 C34.45018951 175.01523613 34.45018951 175.01523613 32.72161865 175.00288391 C30.33102954 174.98905803 27.94042082 174.97832919 25.54980469 174.97045898 C21.90651761 174.95325538 18.26414024 174.90935517 14.62109375 174.86523438 C12.29557957 174.85510611 9.9700577 174.84659043 7.64453125 174.83984375 C6.01913422 174.81358162 6.01913422 174.81358162 4.36090088 174.78678894 C-3.4308209 174.80897268 -9.19280089 176.00369286 -14.74609375 181.703125 Z " fill="#05AC9B" transform="translate(165.37109375,-0.265625)"/>
<path d="M0 0 C0.66861557 -0.00525696 1.33723114 -0.01051392 2.02610779 -0.01593018 C4.23574195 -0.02913166 6.44465542 -0.02039222 8.65429688 -0.01025391 C10.18982074 -0.01227462 11.72534368 -0.01518603 13.26086426 -0.01895142 C16.47885272 -0.02337494 19.69659136 -0.016943 22.91455078 -0.00292969 C27.04078303 0.01416248 31.16642991 0.00432141 35.29264069 -0.01364708 C38.46336279 -0.02448429 41.63394597 -0.02103892 44.80467224 -0.0132637 C46.3261268 -0.01126151 47.84759395 -0.01372167 49.36903381 -0.02070236 C51.49506066 -0.02831613 53.62013771 -0.01671523 55.74609375 0 C57.56119446 0.00358017 57.56119446 0.00358017 59.41296387 0.00723267 C62.37304688 0.38818359 62.37304688 0.38818359 64.2286377 1.76400757 C65.84920095 4.06395415 66.30577884 5.56292613 66.37304688 8.38818359 C64.79150391 11.01379395 64.79150391 11.01379395 62.37304688 13.38818359 C59.33740234 14.00964355 59.33740234 14.00964355 55.74023438 14.00341797 C55.08283264 14.00896698 54.42543091 14.01451599 53.74810791 14.02023315 C51.58067319 14.03201922 49.41533448 14.00776993 47.24804688 13.98193359 C45.7387705 13.98022209 44.22949115 13.98028857 42.72021484 13.98205566 C39.55928043 13.98040304 36.39905578 13.96171723 33.23828125 13.93017578 C29.18947049 13.89049752 25.14158914 13.88613067 21.09262085 13.89363861 C17.97672024 13.89671026 14.86102804 13.88458103 11.74517822 13.86750793 C10.25247505 13.86048371 8.75974826 13.8573527 7.26702881 13.85820007 C5.17953932 13.85639935 3.09315702 13.83499688 1.00585938 13.80810547 C-0.77473877 13.79547668 -0.77473877 13.79547668 -2.59130859 13.78259277 C-5.90673682 13.35183241 -7.33185479 12.79671662 -9.62695312 10.38818359 C-10.36207475 4.50721058 -10.36207475 4.50721058 -8.51379395 1.69369507 C-5.69696446 -0.25527868 -3.4006032 0.00670747 0 0 Z " fill="#0AAB99" transform="translate(237.626953125,75.61181640625)"/>
<path d="M0 0 C0.61328125 1.89453125 0.61328125 1.89453125 1 4 C0.401875 4.556875 -0.19625 5.11375 -0.8125 5.6875 C-3.62004727 8.65547854 -3.91524955 11.13287359 -4.60546875 15.07421875 C-5 17 -5 17 -6 18 C-6.09773905 20.51674361 -6.12995545 23.00601827 -6.12025452 25.52320862 C-6.12110894 26.32035575 -6.12196337 27.11750289 -6.12284368 27.938806 C-6.12450092 30.63053165 -6.11897316 33.32219603 -6.11352539 36.01391602 C-6.11324355 37.93522134 -6.1134012 39.85652677 -6.1139679 41.77783203 C-6.11425597 47.01108634 -6.10835759 52.24431795 -6.10139394 57.47756696 C-6.0951621 62.9401979 -6.09455674 68.40282931 -6.09336853 73.86546326 C-6.09025471 84.21752224 -6.08204064 94.56957073 -6.07201904 104.92162508 C-6.06085947 116.70376852 -6.05534785 128.48591245 -6.05032361 140.26805985 C-6.03985807 164.51204573 -6.02225765 188.75602228 -6 213 C-5.01 213.33 -4.02 213.66 -3 214 C-2.34 214.66 -1.68 215.32 -1 216 C0.485 215.01 0.485 215.01 2 214 C2.46327281 211.66555505 2.46327281 211.66555505 2.39872742 208.90011597 C2.41126556 207.82035492 2.42380371 206.74059387 2.4367218 205.62811279 C2.43528671 204.43840881 2.43385162 203.24870483 2.43237305 202.02294922 C2.44766052 200.14982559 2.44766052 200.14982559 2.46325684 198.23886108 C2.48832483 194.80921217 2.50012217 191.37999198 2.50611091 187.9502883 C2.51547352 184.36808759 2.54167506 180.78601178 2.56611633 177.20388794 C2.60984349 170.41827989 2.63835214 163.63269599 2.66143972 156.84698975 C2.6884582 149.12271405 2.73237166 141.3985636 2.77772844 133.6743772 C2.87066366 117.78298244 2.94230359 101.89156411 3 86 C3.33 86 3.66 86 4 86 C4.00146656 86.66684279 4.00293312 87.33368559 4.00444412 88.02073574 C4.041551 104.27213819 4.10061689 120.52329901 4.18390274 136.77452755 C4.22365431 144.63362391 4.25606644 152.49262069 4.27099609 160.35180664 C4.28403283 167.20461425 4.31104876 174.05720242 4.35461307 180.90988642 C4.37718279 184.53591005 4.39291341 188.16166349 4.39188385 191.7877636 C4.39099503 195.84311115 4.4213256 199.89766553 4.45410156 203.95288086 C4.4490712 205.14547012 4.44404083 206.33805939 4.43885803 207.56678772 C4.5516747 216.60510559 6.55611609 223.44514511 12.25 230.5625 C12.77078125 231.22378906 13.2915625 231.88507813 13.828125 232.56640625 C14.40820312 233.27603516 14.40820312 233.27603516 15 234 C14.360625 234.598125 13.72125 235.19625 13.0625 235.8125 C10.79689611 237.90810337 10.79689611 237.90810337 10 241 C10.39397335 243.63804589 10.39397335 243.63804589 11 246 C1.09096501 240.30230488 -4.60558269 231.79512114 -8 221 C-8.95791039 216.3152873 -9.14610281 211.75813289 -9.14044189 206.99423218 C-9.14341302 206.20536326 -9.14638414 205.41649434 -9.1494453 204.60372031 C-9.15809307 201.96936387 -9.15963722 199.33505308 -9.16113281 196.70068359 C-9.16576381 194.80796207 -9.17078885 192.91524148 -9.17617798 191.02252197 C-9.18927799 185.88587207 -9.19574242 180.74923523 -9.20018864 175.61257124 C-9.20312363 172.39994221 -9.20722927 169.18731672 -9.21169281 165.97468948 C-9.22536228 155.9131959 -9.23503127 145.85171044 -9.2388947 135.79020822 C-9.24337229 124.19441309 -9.26090867 112.59873602 -9.2898953 101.00297678 C-9.3115485 92.02779316 -9.32160095 83.05264267 -9.32293582 74.07743323 C-9.32398136 68.72270198 -9.32983563 63.36808178 -9.34775543 58.01337814 C-9.36429878 52.97199732 -9.36636131 47.93081031 -9.35761642 42.88941193 C-9.35684936 41.04645135 -9.36114481 39.20348009 -9.37107468 37.36054611 C-9.44188432 23.39133816 -8.93877698 11.45552001 0 0 Z " fill="#11A897" transform="translate(10,68)"/>
<path d="M0 0 C0.66 0.33 1.32 0.66 2 1 C-0.22376989 3.51906497 -2.10562408 4.86660735 -5.46143019 5.36711264 C-8.69448552 5.48908256 -11.90712129 5.48609337 -15.14228821 5.4430542 C-17.01079627 5.44205542 -17.01079627 5.44205542 -18.91705197 5.44103646 C-22.3722227 5.4351439 -25.82642092 5.41122601 -29.28139699 5.3797195 C-33.00794892 5.3501196 -36.73454889 5.34372697 -40.4611969 5.33451843 C-46.91697942 5.31538855 -53.37255055 5.28154932 -59.82821083 5.2377243 C-69.16198891 5.17438211 -78.4957611 5.13321588 -87.82968082 5.09746507 C-102.97322018 5.03885983 -118.11661364 4.96231555 -133.26000977 4.87451172 C-147.97058637 4.78925581 -162.68116712 4.712435 -177.3918457 4.64697266 C-178.29857874 4.64293477 -179.20531178 4.63889688 -180.13952158 4.63473663 C-184.68832546 4.61453185 -189.23713006 4.59449306 -193.78593504 4.5745368 C-231.5241027 4.40875929 -269.26207583 4.21387762 -307 4 C-307 3.34 -307 2.68 -307 2 C-306.35788438 1.99826375 -305.71576877 1.9965275 -305.05419511 1.99473864 C-267.02604143 1.89178685 -228.99790562 1.7836909 -190.96978582 1.66888306 C-186.4071848 1.65511292 -181.84458365 1.64138591 -177.28198242 1.62768555 C-176.37362246 1.62495724 -175.4652625 1.62222894 -174.52937648 1.61941796 C-159.80712949 1.57530189 -145.08487481 1.53468241 -130.36261436 1.49534739 C-115.26449239 1.4549306 -100.16638473 1.41077422 -85.06828386 1.36312145 C-75.7464402 1.33381838 -66.42459764 1.30745794 -57.10273538 1.28482103 C-50.7167738 1.26903459 -44.33082974 1.24962699 -37.9448876 1.22733159 C-34.25650651 1.21456244 -30.56813891 1.2034284 -26.87974167 1.19658089 C-22.88706287 1.18912691 -18.89443397 1.17406744 -14.90177917 1.15821838 C-13.14061454 1.15675122 -13.14061454 1.15675122 -11.34387082 1.15525442 C-10.27894542 1.14977998 -9.21402002 1.14430554 -8.11682415 1.1386652 C-6.73331313 1.13467814 -6.73331313 1.13467814 -5.32185239 1.13061053 C-2.84148312 1.09296484 -2.84148312 1.09296484 0 0 Z " fill="#20A194" transform="translate(342,305)"/>
<path d="M0 0 C0.61328125 1.89453125 0.61328125 1.89453125 1 4 C0.401875 4.556875 -0.19625 5.11375 -0.8125 5.6875 C-3.62004727 8.65547854 -3.91524955 11.13287359 -4.60546875 15.07421875 C-5 17 -5 17 -6 18 C-6.11014537 20.54158088 -6.15496159 23.05657404 -6.15821838 25.59913635 C-6.16315636 26.40445059 -6.16809434 27.20976483 -6.17318195 28.03948253 C-6.18863454 30.75882275 -6.19693845 33.47813922 -6.20532227 36.19750977 C-6.2148947 38.13852144 -6.2249044 40.079531 -6.23532104 42.02053833 C-6.26244497 47.30748712 -6.28341385 52.59444492 -6.30332303 57.88142514 C-6.32513657 63.4001285 -6.35254784 68.91880391 -6.37937927 74.43748474 C-6.429369 84.89577131 -6.47428445 95.35407335 -6.51740164 105.81239027 C-6.56672046 117.71547026 -6.62165838 129.6185222 -6.67708123 141.52157509 C-6.79099764 166.01435725 -6.89781554 190.50716629 -7 215 C-7.66 215 -8.32 215 -9 215 C-9.07016405 189.91281089 -9.12302442 164.82563655 -9.15543652 139.73836899 C-9.17088781 128.08921778 -9.1919441 116.44012763 -9.22631836 104.79101562 C-9.25627392 94.63449507 -9.27558763 84.47801875 -9.28226548 74.32145524 C-9.28616731 68.94650434 -9.2953009 63.57167996 -9.31719017 58.19676971 C-9.33765261 53.13085706 -9.34381415 48.06512227 -9.33932304 42.99917221 C-9.34014389 41.14653683 -9.34605109 39.29389509 -9.35761642 37.44129562 C-9.44068444 23.44043591 -8.96054937 11.4834225 0 0 Z " fill="#1E9E92" transform="translate(10,68)"/>
<path d="M0 0 C0.76376953 -0.01611328 1.52753906 -0.03222656 2.31445312 -0.04882812 C5.75349697 -0.0518212 7.99327786 0.00879645 11.06640625 1.6484375 C12.5625 3.3125 12.5625 3.3125 13.0625 6.25 C12.43486324 10.09427517 11.68412003 11.01030523 8.5625 13.3125 C5.71717596 13.92322741 2.96353946 13.91686559 0.0625 13.875 C-0.69675781 13.89884766 -1.45601563 13.92269531 -2.23828125 13.94726562 C-6.31378094 13.93655941 -7.87843412 13.82763312 -10.97265625 10.9765625 C-12.4375 8.3125 -12.4375 8.3125 -12.375 5.125 C-10.37650811 -0.87047566 -5.37625456 -0.02257034 0 0 Z " fill="#08AC99" transform="translate(326.4375,75.6875)"/>
<path d="M0 0 C3.39575528 5.09363293 3.14595525 10.14064028 3.13371277 16.10897827 C3.13597833 16.92093835 3.13824388 17.73289844 3.14057809 18.56946337 C3.14690354 21.28769711 3.14608966 24.00588081 3.14526367 26.72412109 C3.14825606 28.67406783 3.15165877 30.62401398 3.15544128 32.57395935 C3.16427709 37.86942211 3.16661921 43.1648687 3.16725707 48.46033812 C3.16820673 52.88132988 3.17188567 57.30231789 3.17542917 61.72330821 C3.18357203 72.15375689 3.18601354 82.58419694 3.18530273 93.01464844 C3.18470187 103.77382763 3.19525574 114.53295669 3.2110464 125.2921232 C3.22412183 134.53047591 3.22948663 143.76881224 3.22884732 153.00717413 C3.22859235 158.52437643 3.23144324 164.04153418 3.24202538 169.55872726 C3.25170644 174.74778816 3.25178544 179.93676191 3.24450874 185.12582588 C3.24346294 187.02893387 3.24582555 188.93204728 3.2518692 190.83514595 C3.25959261 193.43588449 3.254942 196.03632233 3.24723816 198.63705444 C3.25238172 199.38755267 3.25752529 200.13805089 3.26282471 200.91129148 C3.23171896 205.67340671 2.47951551 209.52587911 1 214 C0.34 212.68 -0.32 211.36 -1 210 C-0.34 210 0.32 210 1 210 C1.33 144.99 1.66 79.98 2 13 C1.01 13 0.02 13 -1 13 C-1 12.34 -1 11.68 -1 11 C-0.34 11 0.32 11 1 11 C0.67 7.37 0.34 3.74 0 0 Z " fill="#11A9A1" transform="translate(370,79)"/>
<path d="M0 0 C3.58805994 1.48832083 5.60130497 3.51557933 8.125 6.4375 C8.80820313 7.21996094 9.49140625 8.00242187 10.1953125 8.80859375 C14 13.42857143 14 13.42857143 14 17 C12.68 17 11.36 17 10 17 C9.67 16.01 9.34 15.02 9 14 C9.66 14 10.32 14 11 14 C11 13.34 11 12.68 11 12 C9.68 11.67 8.36 11.34 7 11 C6.67 11.99 6.34 12.98 6 14 C5.67 13.34 5.34 12.68 5 12 C4.01 12.33 3.02 12.66 2 13 C2 14.98 2 16.96 2 19 C0.948125 17.9171875 0.948125 17.9171875 -0.125 16.8125 C-3.79299966 13.14450034 -7.67713148 9.88191235 -12 7 C-8.44219804 7.60990891 -5.3171411 8.5783681 -2 10 C-2 10.66 -2 11.32 -2 12 C0.04836882 11.43637698 0.04836882 11.43637698 2 10 C3.08892339 7.13362718 3.08892339 7.13362718 3 4 C1.68864588 1.63709315 1.68864588 1.63709315 0 0 Z " fill="#03AD9B" transform="translate(245,8)"/>
<path d="M0 0 C1.8125 1.5625 1.8125 1.5625 3 3 C2.34 5.31 1.68 7.62 1 10 C-0.32 10.33 -1.64 10.66 -3 11 C-3.309375 10.05125 -3.61875 9.1025 -3.9375 8.125 C-4.87394742 5.13919592 -4.87394742 5.13919592 -6 3 C-6.99 3.495 -6.99 3.495 -8 4 C-7.625 2.0625 -7.625 2.0625 -7 0 C-4.26634878 -1.36682561 -2.89333621 -0.84683011 0 0 Z " fill="#02AE9C" transform="translate(246,9)"/>
<path d="M0 0 C2.475 0.99 2.475 0.99 5 2 C4.01 3.485 4.01 3.485 3 5 C3.30840599 7.15274948 3.30840599 7.15274948 4 9 C3.01 9.66 2.02 10.32 1 11 C1.33 12.32 1.66 13.64 2 15 C-1.45925163 13.7508258 -4.14693203 12.32472205 -7 10 C-4.36095629 8.58622659 -1.92879371 7.62759865 1 7 C0.67 6.01 0.34 5.02 0 4 C0 2.68 0 1.36 0 0 Z " fill="#11A897" transform="translate(348,56)"/>
<path d="M0 0 C1.485 0.99 1.485 0.99 3 2 C3 2.99 3 3.98 3 5 C9.6 5.33 16.2 5.66 23 6 C19.9960671 9.0039329 16.64744969 8.40743185 12.625 8.4375 C11.85671875 8.47037109 11.0884375 8.50324219 10.296875 8.53710938 C6.17472892 8.57633395 4.59510252 8.54840986 1.4609375 5.66015625 C0 3 0 3 0 0 Z " fill="#21A193" transform="translate(314,81)"/>
<path d="M0 0 C0.33 0.66 0.66 1.32 1 2 C-1.31 5.3 -3.62 8.6 -6 12 C-8 8 -8 8 -7.5 5.4375 C-5.53962583 2.25189197 -3.40196433 1.40515918 0 0 Z " fill="#15A696" transform="translate(368,296)"/>
<path d="M0 0 C0 0.66 0 1.32 0 2 C-0.99 2 -1.98 2 -3 2 C-3.33 2.66 -3.66 3.32 -4 4 C-4.66 4 -5.32 4 -6 4 C-6.33 4.99 -6.66 5.98 -7 7 C-7.99 7.33 -8.98 7.66 -10 8 C-10.66 7.34 -11.32 6.68 -12 6 C-13.31747324 5.30251417 -14.64914193 4.63040043 -16 4 C-13.89748139 3.32815382 -11.79292237 2.66269032 -9.6875 2 C-8.51574219 1.62875 -7.34398437 1.2575 -6.13671875 0.875 C-3 0 -3 0 0 0 Z " fill="#16A792" transform="translate(304,167)"/>
<path d="M0 0 C7.33170632 3.85099726 14.16198078 8.33718825 21 13 C19 14 19 14 15.4375 13.25 C14.303125 12.8375 13.16875 12.425 12 12 C11.67 11.01 11.34 10.02 11 9 C7.50833145 6.38124858 4.11336093 4.45177445 0 3 C0 2.01 0 1.02 0 0 Z " fill="#1BA795" transform="translate(14,137)"/>
<path d="M0 0 C3 1 3 1 4.1875 2.4375 C7.06984967 4.9222842 10.31012658 5.21363353 14 6 C14 6.99 14 7.98 14 9 C8.58961609 8.59422121 4.07142845 6.57541686 0 3 C0 2.01 0 1.02 0 0 Z " fill="#19A693" transform="translate(145,212)"/>
<path d="M0 0 C3.55780196 0.60990891 6.6828589 1.5783681 10 3 C10 3.66 10 4.32 10 5 C10.99 5 11.98 5 13 5 C13.33 7.31 13.66 9.62 14 12 C13.29875 11.278125 12.5975 10.55625 11.875 9.8125 C8.20700034 6.14450034 4.32286852 2.88191235 0 0 Z " fill="#1DA395" transform="translate(233,15)"/>
<path d="M0 0 C6.49142565 0.42335385 11.33492989 2.91099799 17 6 C13.25 8 13.25 8 11 8 C10.67 7.01 10.34 6.02 10 5 C6.88387743 2.92258495 3.6648732 2.49975544 0 2 C0 1.34 0 0.68 0 0 Z " fill="#24A094" transform="translate(228,1)"/>
<path d="M0 0 C2.79872437 2.52788007 4.45773019 4.20411134 5 8 C4.01 7.67 3.02 7.34 2 7 C1.01 8.485 1.01 8.485 0 10 C-0.66 9.67 -1.32 9.34 -2 9 C-1.34 6.03 -0.68 3.06 0 0 Z " fill="#0DA895" transform="translate(363,67)"/>
<path d="M0 0 C0.99 0 1.98 0 3 0 C3.226875 0.78375 3.45375 1.5675 3.6875 2.375 C4.78125 5.21875 4.78125 5.21875 7.625 6.3125 C8.800625 6.6528125 8.800625 6.6528125 10 7 C7.83032311 7.95465783 6.43671207 8.14401212 4.17578125 7.3984375 C2.4315257 6.64129615 0.71372869 5.82390802 -1 5 C-0.67 3.35 -0.34 1.7 0 0 Z " fill="#13A899" transform="translate(25,311)"/>
<path d="M0 0 C0 0.99 0 1.98 0 3 C-0.66 3 -1.32 3 -2 3 C-2.33 3.99 -2.66 4.98 -3 6 C-3.7425 6.103125 -4.485 6.20625 -5.25 6.3125 C-8.17014018 7.04253504 -9.73187554 8.06789398 -12 10 C-10.58426179 6.60812721 -8.95769034 4.90302459 -6 2.75 C-5.29875 2.22921875 -4.5975 1.7084375 -3.875 1.171875 C-2 0 -2 0 0 0 Z " fill="#1DA494" transform="translate(23,58)"/>
<path d="M0 0 C0.33 0.66 0.66 1.32 1 2 C0.20335937 2.54527344 0.20335937 2.54527344 -0.609375 3.1015625 C-5.1959325 6.36571839 -8.05274712 9.23905304 -11 14 C-11.66 14 -12.32 14 -13 14 C-11.64101764 9.77533744 -9.86283346 7.6105921 -6.5 4.75 C-5.30890625 3.72132812 -5.30890625 3.72132812 -4.09375 2.671875 C-2 1 -2 1 0 0 Z " fill="#1EA18A" transform="translate(131,6)"/>
<path d="M0 0 C-6.28453206 3.32797915 -10.88658735 4.45164525 -18 4 C-14.89576443 2.31945639 -11.83501066 1.26010501 -8.4375 0.3125 C-7.48746094 0.04050781 -6.53742188 -0.23148438 -5.55859375 -0.51171875 C-3 -1 -3 -1 0 0 Z " fill="#24A394" transform="translate(288,173)"/>
<path d="M0 0 C2 3 2 3 3 6 C3.99 6.33 4.98 6.66 6 7 C5.67 7.99 5.34 8.98 5 10 C2.03 7.36 -0.94 4.72 -4 2 C-2.68 1.34 -1.36 0.68 0 0 Z " fill="#1BA795" transform="translate(15,304)"/>
<path d="M0 0 C1.65 0.33 3.3 0.66 5 1 C1.69001895 3.20665404 -0.82021436 3.78262095 -4.6875 4.625 C-5.86699219 4.88539063 -7.04648437 5.14578125 -8.26171875 5.4140625 C-9.61716797 5.70410156 -9.61716797 5.70410156 -11 6 C-9.69696706 3.39393412 -8.68319019 3.08777981 -6 2 C-4.00889599 1.61709538 -2.00899487 1.27395385 0 1 C0 0.67 0 0.34 0 0 Z " fill="#1EA594" transform="translate(291,181)"/>
<path d="M0 0 C0.66 1.65 1.32 3.3 2 5 C-1.55780196 4.39009109 -4.6828589 3.4216319 -8 2 C-4.91190305 0.23537317 -3.76687864 0 0 0 Z " fill="#18A797" transform="translate(62,172)"/>
<path d="M0 0 C1.77226453 0.28284018 3.542788 0.57660498 5.3125 0.875 C6.29863281 1.03742188 7.28476563 1.19984375 8.30078125 1.3671875 C11 2 11 2 14 4 C9.71 3.67 5.42 3.34 1 3 C0.67 2.01 0.34 1.02 0 0 Z " fill="#20A394" transform="translate(86,172)"/>
<path d="M0 0 C2.02350324 3.03525486 2.32124018 4.19426202 2.625 7.6875 C2.69976562 8.49574219 2.77453125 9.30398437 2.8515625 10.13671875 C2.90054687 10.75160156 2.94953125 11.36648437 3 12 C1.68 12.33 0.36 12.66 -1 13 C-1 12.34 -1 11.68 -1 11 C-0.34 11 0.32 11 1 11 C0.67 7.37 0.34 3.74 0 0 Z " fill="#17A594" transform="translate(370,79)"/>
<path d="M0 0 C0.33 0.99 0.66 1.98 1 3 C4.3 2.67 7.6 2.34 11 2 C6.60171741 4.1991413 3.81449408 4.51855059 -1 5 C-1.33 4.01 -1.66 3.02 -2 2 C-1.34 1.34 -0.68 0.68 0 0 Z " fill="#17AB97" transform="translate(267,185)"/>
<path d="M0 0 C0 0.99 0 1.98 0 3 C-8.03571429 5.27678571 -8.03571429 5.27678571 -12 4 C-10.3767313 3.3291288 -8.75132422 2.66342971 -7.125 2 C-6.22007812 1.62875 -5.31515625 1.2575 -4.3828125 0.875 C-2 0 -2 0 0 0 Z " fill="#21A396" transform="translate(316,162)"/>
<path d="M0 0 C0 3.41321235 -0.66867466 4.39472885 -2.5 7.1875 C-2.9640625 7.90292969 -3.428125 8.61835938 -3.90625 9.35546875 C-4.2671875 9.89816406 -4.628125 10.44085938 -5 11 C-5.66 10.67 -6.32 10.34 -7 10 C-6.02223933 8.51990357 -5.0427506 7.04094856 -4.0625 5.5625 C-3.51722656 4.73878906 -2.97195312 3.91507813 -2.41015625 3.06640625 C-1 1 -1 1 0 0 Z " fill="#1EA28F" transform="translate(143,171)"/>
<path d="M0 0 C4.29238623 1.65091778 6.8793915 4.73754566 10 8 C9.67 8.66 9.34 9.32 9 10 C5.01930733 7.12505529 2.56428003 4.17882671 0 0 Z " fill="#1F9F8D" transform="translate(245,8)"/>
<path d="M0 0 C0.33 0.66 0.66 1.32 1 2 C1.66 2.33 2.32 2.66 3 3 C1.71937515 4.7074998 0.38232443 6.37373596 -1 8 C-1.66 8 -2.32 8 -3 8 C-3 5 -3 5 -1 3 C-0.67 2.01 -0.34 1.02 0 0 Z " fill="#17A390" transform="translate(231,207)"/>
<path d="M0 0 C1.32 0.66 2.64 1.32 4 2 C3.01 3.98 2.02 5.96 1 8 C-1 5 -1 5 -0.625 2.3125 C-0.41875 1.549375 -0.2125 0.78625 0 0 Z " fill="#14A58F" transform="translate(148,178)"/>
<path d="M0 0 C0.66 0.33 1.32 0.66 2 1 C1.01 2.98 0.02 4.96 -1 7 C-3.475 6.01 -3.475 6.01 -6 5 C-4.06745228 2.9754262 -2.36841312 1.57894208 0 0 Z " fill="#18A497" transform="translate(347,145)"/>
<path d="M0 0 C1.485 0.99 1.485 0.99 3 2 C3.29296875 4.1640625 3.29296875 4.1640625 3.1875 6.625 C3.16042969 7.44226563 3.13335937 8.25953125 3.10546875 9.1015625 C3.07066406 9.72804688 3.03585937 10.35453125 3 11 C0.43383368 7.15075052 0.44902324 4.5650696 0 0 Z " fill="#19A595" transform="translate(2,284)"/>
<path d="M0 0 C0.66 0.33 1.32 0.66 2 1 C0.68 2.65 -0.64 4.3 -2 6 C-2.99 5.67 -3.98 5.34 -5 5 C-3.35 3.35 -1.7 1.7 0 0 Z " fill="#1AA492" transform="translate(149,166)"/>
<path d="M0 0 C1.32 0.33 2.64 0.66 4 1 C5.3125 3.375 5.3125 3.375 6 6 C5.67 6.99 5.34 7.98 5 9 C3.35 6.03 1.7 3.06 0 0 Z " fill="#1CA490" transform="translate(353,74)"/>
<path d="M0 0 C2 1.8125 2 1.8125 4 4 C4 4.99 4 5.98 4 7 C2.68 7 1.36 7 0 7 C-0.33 6.01 -0.66 5.02 -1 4 C-0.34 4 0.32 4 1 4 C0.67 2.68 0.34 1.36 0 0 Z " fill="#15A99B" transform="translate(255,18)"/>
<path d="M0 0 C2.5 0.3125 2.5 0.3125 5 1 C5.33 1.66 5.66 2.32 6 3 C4.02 3.33 2.04 3.66 0 4 C-0.33 3.01 -0.66 2.02 -1 1 C-0.67 0.67 -0.34 0.34 0 0 Z " fill="#13A591" transform="translate(239,5)"/>
</svg>
