<svg width="800" height="800" viewBox="0 0 800 800" fill="none" xmlns="http://www.w3.org/2000/svg">
<g clip-path="url(#clip0_14_2)">
<ellipse cx="400" cy="400" rx="405" ry="400" fill="#D9D9D9"/>
<path d="M374.569 12.1154C372.887 12.2771 367.584 12.7944 362.799 13.1824C252.602 23.1094 149.358 82.5739 83.977 173.986C47.8321 224.159 24.3378 282.318 15.4921 343.519C12.388 364.828 12 371.134 12 400.042C12 428.949 12.388 435.222 15.4921 456.564C36.5744 602.266 140.272 724.688 280.895 770.054C306.084 778.17 332.631 783.699 362.799 787.03C374.569 788.323 425.367 788.323 437.136 787.03C489.227 781.274 533.397 768.372 576.919 746.158C581.516 743.793 583.556 742.629 584.082 741.89C584.318 741.558 584.249 741.312 583.968 741.082C562.709 712.991 541.647 684.751 520.786 656.363L458.736 572.55L381.003 457.501C355.158 419.005 329.063 380.676 302.721 342.517C302.43 342.452 302.107 393.574 301.977 455.982C301.751 565.275 301.686 569.672 300.296 572.259C298.976 575.281 296.611 577.727 293.635 579.147C291.21 580.375 289.076 580.602 277.629 580.602H264.501L261.009 578.403C258.855 577.045 257.102 575.136 255.933 572.873L254.348 569.446L254.51 417.373L254.736 265.236L257.097 262.293C258.683 260.43 260.588 258.864 262.723 257.669C265.827 256.15 267.056 255.988 280.184 255.988C295.672 255.988 298.227 256.602 302.268 261C333.735 307.829 364.938 354.835 395.877 402.014C446.255 478.39 515.095 582.671 548.95 633.89L610.386 726.951L613.49 724.914C643.051 705.25 669.856 681.729 693.195 654.973C742.084 599.022 773.789 530.152 784.508 456.628C787.612 435.319 788 429.014 788 400.106C788 371.198 787.612 364.925 784.508 343.584C763.426 197.881 659.728 75.4602 519.105 30.0938C492.825 21.727 465.761 16.0606 438.333 13.1824C431.057 12.4387 380.906 11.598 374.633 12.2124L374.569 12.1154ZM533.397 246.805C535.205 247.714 536.814 248.974 538.13 250.512C539.446 252.05 540.442 253.834 541.06 255.762C541.674 257.734 541.804 299.899 541.674 394.933L541.448 531.323L517.391 494.46L493.269 457.598V358.458C493.269 294.37 493.56 258.348 494.013 256.602C494.562 254.587 495.508 252.702 496.796 251.058C498.085 249.414 499.689 248.045 501.515 247.031C504.619 245.447 505.751 245.285 517.682 245.285C528.902 245.285 530.875 245.447 533.397 246.805Z" fill="black"/>
</g>
<defs>
<clipPath id="clip0_14_2">
<rect width="800" height="800" fill="white"/>
</clipPath>
</defs>
</svg>
