<?xml version="1.0" encoding="UTF-8"?>
<svg version="1.1" xmlns="http://www.w3.org/2000/svg" width="250" height="258">
<path d="M0 0 C0.89847656 0.27714844 1.79695312 0.55429688 2.72265625 0.83984375 C15.76283098 5.32434124 29.74863889 16.12503016 36.0625 28.375 C46.56979693 51.33400469 35.82769804 83.12040749 27.68359375 105.2734375 C22.89424019 117.66444422 17.36717044 130.94924434 10 142 C14.74678104 142.10668024 14.74678104 142.10668024 19.4375 141.5 C25.7709347 140.26420786 30.5479092 140.40657652 36 144 C38.76452414 146.32802033 39.8462574 147.97243467 40.3828125 151.55859375 C40.66803557 158.56557376 39.46685456 162.2383103 34.66796875 167.4453125 C22.15323946 179.54816463 5.46695233 181.45910976 -11 183 C-11.03963867 183.66829834 -11.07927734 184.33659668 -11.12011719 185.02514648 C-13.88874298 229.60231614 -13.88874298 229.60231614 -29.58984375 244.09765625 C-40.4375238 252.65976352 -54.44291656 255.39862057 -68 254 C-75.21692959 252.34591518 -80.56718554 248.92931448 -85 243 C-95.01127691 226.76918321 -95.45430963 207.52573702 -95 189 C-95.57105469 189.2165625 -96.14210938 189.433125 -96.73046875 189.65625 C-107.88137034 193.48549443 -118.91413012 192.8792429 -130 189 C-132.43984461 187.79091182 -134.67883243 186.43220978 -137 185 C-140.09717098 184.768717 -140.09717098 184.768717 -142.875 186.5 C-148.85037481 189.15149328 -156.03642872 189.00939846 -162.30078125 187.4140625 C-177.71227879 180.68118381 -185.08709996 162.20018798 -190.92578125 147.55859375 C-198.54760362 127.61025577 -203.95195674 106.94607257 -208 86 C-208.19432617 85.00589111 -208.38865234 84.01178223 -208.58886719 82.98754883 C-212.13255249 63.56202612 -212.55974051 39.04621633 -201 22 C-191.47764913 9.79606757 -179.86840671 1.61590677 -164.2890625 -0.71875 C-147.48681237 -2.15552198 -131.37295137 -0.67528994 -115.296875 4.546875 C-110.91091301 5.41213281 -107.39832501 3.83850445 -103.4375 2.0625 C-91.40513758 -2.83232199 -78.85352499 -2.60255321 -66.125 -1.3125 C-61.16187956 -0.91154922 -57.20059175 -1.24778037 -52.375 -2.4375 C-35.48747661 -6.25708644 -16.36521317 -5.74885701 0 0 Z " fill="#F7F8F9" transform="translate(210,4)"/>
<path d="M0 0 C0.7434668 0.00749268 1.48693359 0.01498535 2.25292969 0.02270508 C20.64294368 0.37973463 37.01756809 7.44934894 50.5 19.96875 C57.13212488 26.8851088 68.6875 39.9747135 68.6875 50.25 C67.6975 50.27578125 66.7075 50.3015625 65.6875 50.328125 C53.92447161 50.73911265 53.92447161 50.73911265 44.13671875 56.7421875 C39.81787857 61.63281779 39.31529706 65.72486716 39.4296875 72 C41.18659262 94.14765244 55.38992027 117.17503382 67.6875 135.25 C65.96223958 136.06380208 64.23697917 136.87760417 62.51171875 137.69140625 C58.43377407 141.17556027 57.56968076 145.99223531 57.09765625 151.09375 C56.97264094 152.97858331 56.85735319 154.86407828 56.75 156.75 C56.091062 166.00495153 55.21224796 175.21596092 54.06246948 184.421875 C53.81957367 186.38046156 53.58940375 188.34061321 53.35961914 190.30078125 C50.50421663 212.71123169 50.50421663 212.71123169 43.44921875 219.890625 C36.39414309 225.33445279 26.67701727 227.80543421 17.85546875 227.5625 C12.71025053 226.82084692 9.52893333 224.09143333 5.9375 220.5 C1.58608826 214.21462748 0.17180261 207.90496513 -0.4375 200.4375 C-0.51750244 199.54748291 -0.59750488 198.65746582 -0.67993164 197.74047852 C-1.23667485 190.63643515 -1.42250065 183.54450069 -1.55078125 176.421875 C-1.56872742 175.46328079 -1.58667358 174.50468658 -1.60516357 173.51704407 C-1.69270181 168.63327956 -1.75873381 163.75037815 -1.79541016 158.8659668 C-1.82034011 157.03433837 -1.845556 155.2027138 -1.87109375 153.37109375 C-1.87113152 152.10353241 -1.87113152 152.10353241 -1.87117004 150.81036377 C-1.95030783 146.15372644 -2.26462335 143.01221571 -5.3125 139.25 C-8.89924941 137.06676123 -12.16556912 135.85984278 -16.3125 135.25 C-14.82300552 127.5295836 -12.21933645 120.74684094 -9.14648438 113.53515625 C-3.14877394 99.10074039 -3.24685058 78.55936254 -8.16015625 63.68359375 C-10.49104615 58.5594107 -13.57283446 55.52943772 -18.62109375 53.171875 C-26.56279862 50.45163937 -34.40431382 52.14972627 -41.9375 55.27734375 C-44.0595492 56.14640666 -46.07763015 56.75853556 -48.3125 57.25 C-49.41483549 41.81730316 -43.50376022 26.22732485 -33.921875 14.265625 C-24.59594245 4.35315582 -13.51896305 -0.18180674 0 0 Z " fill="#346791" transform="translate(129.3125,16.75)"/>
<path d="M0 0 C1.17103271 0.00918457 2.34206543 0.01836914 3.54858398 0.02783203 C29.05422467 0.55422467 29.05422467 0.55422467 35 6.5 C34.23816406 7.48226563 34.23816406 7.48226563 33.4609375 8.484375 C17.34119351 29.85661984 15.79849341 51.13157866 15.27758789 77.05859375 C15.22040419 79.84613672 15.15099237 82.63295449 15.07055664 85.41992188 C14.95391218 89.46192575 14.87224738 93.50396248 14.79296875 97.546875 C14.75358688 98.78056824 14.71420502 100.01426147 14.67362976 101.28533936 C14.53078319 111.12715282 16.19931428 120.00304175 22.75 127.6875 C23.36359375 128.42355469 23.9771875 129.15960938 24.609375 129.91796875 C25.29773438 130.70107422 25.29773438 130.70107422 26 131.5 C24.43084899 135.2073348 22.12104746 137.70891864 19.375 140.625 C15.2713833 145.04245751 11.49829317 149.58037181 7.88671875 154.40625 C5.04520141 157.55956945 2.28685493 159.24822404 -1.875 160.0625 C-7.56653193 159.03802425 -10.38956406 155.54750624 -13.87109375 151.12109375 C-35.15933019 119.63849056 -48.37233208 66.42227642 -41.9375 28.75 C-39.18913004 18.15279676 -33.32691657 10.17240101 -24 4.5 C-16.04648772 0.6882044 -8.73712517 -0.1420262 0 0 Z " fill="#346791" transform="translate(58,17.5)"/>
<path d="M0 0 C0.89847656 0.27714844 1.79695312 0.55429688 2.72265625 0.83984375 C15.76283098 5.32434124 29.74863889 16.12503016 36.0625 28.375 C46.56979693 51.33400469 35.82769804 83.12040749 27.68359375 105.2734375 C22.89424019 117.66444422 17.36717044 130.94924434 10 142 C14.74678104 142.10668024 14.74678104 142.10668024 19.4375 141.5 C25.7709347 140.26420786 30.5479092 140.40657652 36 144 C38.76452414 146.32802033 39.8462574 147.97243467 40.3828125 151.55859375 C40.66803557 158.56557376 39.46685456 162.2383103 34.66796875 167.4453125 C22.15323946 179.54816463 5.46695233 181.45910976 -11 183 C-11.03963867 183.66829834 -11.07927734 184.33659668 -11.12011719 185.02514648 C-13.88874298 229.60231614 -13.88874298 229.60231614 -29.58984375 244.09765625 C-40.4375238 252.65976352 -54.44291656 255.39862057 -68 254 C-75.21692959 252.34591518 -80.56718554 248.92931448 -85 243 C-95.01127691 226.76918321 -95.45430963 207.52573702 -95 189 C-95.57105469 189.2165625 -96.14210938 189.433125 -96.73046875 189.65625 C-107.88137034 193.48549443 -118.91413012 192.8792429 -130 189 C-132.43984461 187.79091182 -134.67883243 186.43220978 -137 185 C-140.09717098 184.768717 -140.09717098 184.768717 -142.875 186.5 C-148.85037481 189.15149328 -156.03642872 189.00939846 -162.30078125 187.4140625 C-177.71227879 180.68118381 -185.08709996 162.20018798 -190.92578125 147.55859375 C-198.54760362 127.61025577 -203.95195674 106.94607257 -208 86 C-208.19432617 85.00589111 -208.38865234 84.01178223 -208.58886719 82.98754883 C-212.13255249 63.56202612 -212.55974051 39.04621633 -201 22 C-191.47764913 9.79606757 -179.86840671 1.61590677 -164.2890625 -0.71875 C-147.48681237 -2.15552198 -131.37295137 -0.67528994 -115.296875 4.546875 C-110.91091301 5.41213281 -107.39832501 3.83850445 -103.4375 2.0625 C-91.40513758 -2.83232199 -78.85352499 -2.60255321 -66.125 -1.3125 C-61.16187956 -0.91154922 -57.20059175 -1.24778037 -52.375 -2.4375 C-35.48747661 -6.25708644 -16.36521317 -5.74885701 0 0 Z M-56.3125 6.1875 C-59.68310669 6.93017605 -61.51005439 6.80547379 -64.81176758 6.27319336 C-78.40253804 4.57643199 -94.70947858 3.79184784 -106.5078125 11.67578125 C-109.4393953 13.2334718 -110.45976263 13.16895586 -113.625 12.375 C-114.49898438 12.16617187 -115.37296875 11.95734375 -116.2734375 11.7421875 C-118.93895979 11.01661553 -121.59410433 10.25994655 -124.25 9.5 C-140.8250711 4.93316223 -158.8453299 3.40999293 -175 10 C-175.74507812 10.28875 -176.49015625 10.5775 -177.2578125 10.875 C-186.77350365 15.05444082 -193.63115498 22.71268107 -198 32 C-199.24373142 35.29133802 -200.192394 38.57752335 -201 42 C-201.25052124 42.99870117 -201.25052124 42.99870117 -201.50610352 44.01757812 C-205.77388426 61.78501314 -201.8132289 79.48512897 -198 97 C-197.67104736 98.53430664 -197.67104736 98.53430664 -197.33544922 100.09960938 C-187.84862134 144.22131034 -187.84862134 144.22131034 -161.16796875 178.9609375 C-157.16274991 180.8805559 -153.27176244 181.11140331 -149 180 C-142.90468666 177.03691181 -138.74215809 172.94069073 -134.5 167.75 C-133.38194584 166.42020671 -132.26345685 165.09077887 -131.14453125 163.76171875 C-130.61037598 163.12024902 -130.0762207 162.4787793 -129.52587891 161.81787109 C-127.46017099 159.35686931 -125.33027579 156.95647154 -123.1875 154.5625 C-122.56230469 153.86253906 -121.93710938 153.16257813 -121.29296875 152.44140625 C-120.86628906 151.96574219 -120.43960938 151.49007812 -120 151 C-119.01 151.33 -118.02 151.66 -117 152 C-112.91405167 153.1865126 -109.23657606 153.14865179 -105 153 C-108.97108362 160.07966944 -114.304507 162.17048358 -121.75 164.3125 C-122.60247314 164.54211426 -123.45494629 164.77172852 -124.33325195 165.00830078 C-125.14624756 165.22856934 -125.95924316 165.44883789 -126.796875 165.67578125 C-127.53260742 165.86052002 -128.26833984 166.04525879 -129.02636719 166.2355957 C-131.32851908 167.12723816 -132.46948468 168.07330626 -134 170 C-134.66721536 172.91440699 -134.66721536 172.91440699 -134 176 C-130.370277 181.03477706 -125.93043729 182.9187141 -120 184 C-108.10513449 185.06832308 -100.05433878 183.06476885 -90 177 C-89.970271 178.22964478 -89.970271 178.22964478 -89.93994141 179.48413086 C-91.01184364 211.79380839 -91.01184364 211.79380839 -78.6875 240 C-76.89016894 241.60942478 -76.89016894 241.60942478 -75 243 C-74.42765625 243.43183594 -73.8553125 243.86367187 -73.265625 244.30859375 C-66.24250496 248.64552044 -57.49693914 247.99872639 -49.7109375 246.26953125 C-40.59062433 243.4410797 -32.14614447 239.32981253 -27 231 C-22.14286013 219.62028173 -20.58321739 208.00708222 -19.1875 195.8125 C-18.97077013 194.03563976 -18.75267807 192.25894513 -18.53320312 190.48242188 C-17.41231038 181.76665846 -17.41231038 181.76665846 -17 173 C-16.36610352 173.02094727 -15.73220703 173.04189453 -15.07910156 173.06347656 C2.64717938 173.57214935 16.08638613 172.85931176 29.765625 160.390625 C32.02000725 157.98760216 33.01343078 156.59095411 32.9375 153.25 C32.1059527 150.8521195 32.1059527 150.8521195 30 149 C27.20398538 148.71804014 27.20398538 148.71804014 24.0625 148.8125 C23.00160156 148.81894531 21.94070312 148.82539063 20.84765625 148.83203125 C17.92490477 148.88068831 17.92490477 148.88068831 15 150 C12.48658719 150.12170805 10.01309099 150.18510658 7.5 150.1875 C6.82324219 150.19974609 6.14648438 150.21199219 5.44921875 150.22460938 C1.73642956 150.23559396 0.17016924 150.11344616 -3 148 C-2.68361572 147.46858398 -2.36723145 146.93716797 -2.04125977 146.38964844 C15.71723445 116.39067286 30.98596915 83.52374981 31.3125 48.0625 C31.34150391 47.01642578 31.37050781 45.97035156 31.40039062 44.89257812 C31.46847593 36.55998447 29.84242891 31.58435104 24.6953125 25.09375 C9.74788017 10.01001889 -8.2702389 2.87263336 -29.4375 2.75 C-38.70916287 2.78743825 -47.36422863 3.6962199 -56.3125 6.1875 Z " fill="#040404" transform="translate(210,4)"/>
<path d="M0 0 C11.74857818 10.27786825 11.74857818 10.27786825 12.28222656 16.64526367 C12.99981679 53.94743939 -1.63687111 86.96800249 -19.87890625 118.72265625 C-20.77299749 116.24814694 -20.99655371 115.05805834 -20.11254883 112.5378418 C-19.73251709 111.75707275 -19.35248535 110.97630371 -18.9609375 110.171875 C-16.54841536 104.50873113 -16.37735534 99.62259557 -16.56640625 93.53515625 C-16.57607422 92.58962891 -16.58574219 91.64410156 -16.59570312 90.66992188 C-16.67698781 85.59846461 -17.11050695 80.74164532 -17.87890625 75.72265625 C-18.21674233 69.40590722 -18.133717 63.30941443 -16.87890625 57.09765625 C-13.75459282 41.33925786 -19.22544407 29.84186096 -27.87890625 16.72265625 C-36.8052822 4.51019684 -46.71713135 -3.23776002 -59.87890625 -10.27734375 C-47.09973306 -23.05651694 -11.15533129 -8.82436654 0 0 Z " fill="#356892" transform="translate(221.87890625,27.27734375)"/>
<path d="M0 0 C7.39816716 8.21196555 6.65198001 22.81858871 6.33984375 33.2578125 C5.98709437 39.63742947 4.3477112 45.07912395 2 51 C1.31509202 52.81932971 0.63305471 54.63974144 -0.046875 56.4609375 C-1.99565414 61.65464232 -3.9856372 66.8314148 -6 72 C-13.90465769 71.4880502 -19.02729008 70.48164581 -25 65 C-31.69909927 56.96681886 -33.32262994 49.81756751 -32.9765625 39.5703125 C-32.95153656 38.57998016 -32.92651062 37.58964783 -32.90072632 36.56930542 C-32.81886361 33.42083785 -32.72214359 30.27302946 -32.625 27.125 C-32.56672599 24.98440152 -32.50942348 22.84377635 -32.453125 20.703125 C-32.31333536 15.46838858 -32.16136051 10.23411352 -32 5 C-29.75243216 3.84917315 -27.50218252 2.70423142 -25.25 1.5625 C-24.29867187 1.07426758 -24.29867187 1.07426758 -23.328125 0.57617188 C-15.41947898 -3.419342 -7.82613952 -5.09609085 0 0 Z " fill="#366992" transform="translate(112,78)"/>
<path d="M0 0 C1.25425781 0.01804687 2.50851563 0.03609375 3.80078125 0.0546875 C5.22970703 0.08949219 5.22970703 0.08949219 6.6875 0.125 C6.81363284 7.44070453 6.81363284 7.44070453 6.19140625 10.81640625 C5.54700728 15.04745995 5.54223458 19.16487378 5.5625 23.4375 C5.55863281 24.24123047 5.55476563 25.04496094 5.55078125 25.87304688 C5.55847796 30.65655248 5.87617977 35.3000741 6.45605469 40.04663086 C7.2789459 47.43615922 7.53466871 55.16525426 4.6875 62.125 C3.6975 62.62 3.6975 62.62 2.6875 63.125 C-20.22409494 20.59705593 -20.22409494 20.59705593 -17.3125 8.125 C-15.63812178 4.76263074 -13.46529575 2.719664 -10.09375 0.98046875 C-6.62300727 -0.08707712 -3.62477806 -0.06775286 0 0 Z " fill="#386A93" transform="translate(192.3125,73.875)"/>
<path d="M0 0 C2.48706818 0.90438843 3.55364337 1.56215789 5.0625 3.75 C5.76604024 7.70741383 5.29526542 9.36981648 3.1875 12.8125 C-1.2188687 17.62405203 -8.85814771 21.40730805 -15.35546875 21.953125 C-21.65128029 22.05968316 -26.19477867 21.35047758 -31.9375 18.75 C-31.6075 18.09 -31.2775 17.43 -30.9375 16.75 C-29.1036944 16.21599581 -27.24315761 15.77248034 -25.375 15.375 C-15.95692778 13.09859392 -11.04601458 10.72279629 -5.3828125 2.67578125 C-3.66755121 0.39031148 -2.88323185 -0.37202992 0 0 Z " fill="#3C6D95" transform="translate(115.9375,159.25)"/>
<path d="M0 0 C1.39355597 0.60968074 2.77320745 1.25172699 4.140625 1.91796875 C7.71516809 3.11436637 11.02842968 3.13252014 14.75 3.0625 C15.80864258 3.05283203 15.80864258 3.05283203 16.88867188 3.04296875 C21.98944154 2.96802631 26.95391696 2.59586901 32 1.875 C27.37991195 7.26510273 20.76177296 10.08901844 14 11.875 C10.55789575 12.13092922 7.13723239 12.1094856 3.6875 12.0625 C2.76904297 12.06185547 1.85058594 12.06121094 0.90429688 12.06054688 C-5.85944475 12.01555525 -5.85944475 12.01555525 -7 10.875 C-7.375 7.5625 -7.375 7.5625 -7 3.875 C-3.32544379 -0.20784024 -3.32544379 -0.20784024 0 0 Z " fill="#3A6C94" transform="translate(201,158.125)"/>
<path d="M0 0 C0.99 0.309375 1.98 0.61875 3 0.9375 C6.97731122 2.08433207 10.88767379 2.56712356 15 3 C12.91027327 7.51964154 10.3054941 10.49062317 6 13 C2.47230202 14.29015552 -1.13768254 15.27149979 -4.78149414 16.17553711 C-9.54698588 17.39128424 -12.97956936 19.03757743 -17 22 C-17.66 22.33 -18.32 22.66 -19 23 C-17.4186938 19.26077871 -15.06769602 16.70350263 -12.3125 13.75 C-8.13151223 9.2291932 -4.02918327 4.65624159 0 0 Z " fill="#0C0C0C" transform="translate(90,154)"/>
<path d="M0 0 C2.4375 1.5 2.4375 1.5 4 3 C3.6875 4.875 3.6875 4.875 3 7 C-0.24826674 9.16551116 -1.23094157 9.55156953 -5 9 C-7.3125 7.25 -7.3125 7.25 -9 5 C-9 3.68 -9 2.36 -9 1 C-5.94306678 -0.52846661 -3.37015453 -0.23242445 0 0 Z " fill="#EFF3F6" transform="translate(108,79)"/>
<path d="M0 0 C1.22589844 0.01353516 1.22589844 0.01353516 2.4765625 0.02734375 C3.41628906 0.04474609 3.41628906 0.04474609 4.375 0.0625 C4.375 4.0625 4.375 4.0625 2.75 5.875 C-0.39626293 7.44813147 -2.28068383 6.89857904 -5.625 6.0625 C-5.955 4.4125 -6.285 2.7625 -6.625 1.0625 C-4.21954362 -0.14022819 -2.67503047 -0.03821472 0 0 Z " fill="#F4F7F9" transform="translate(187.625,77.9375)"/>
<path d="M0 0 C0.99 0.33 1.98 0.66 3 1 C2.01 2.485 2.01 2.485 1 4 C0.34 4 -0.32 4 -1 4 C-1.33 4.99 -1.66 5.98 -2 7 C-2.33 6.34 -2.66 5.68 -3 5 C-3.99 5.66 -4.98 6.32 -6 7 C-4.61990379 3.66476748 -3.15049348 1.81392049 0 0 Z " fill="#4A789D" transform="translate(182,75)"/>
</svg>
