<?xml version="1.0" encoding="UTF-8"?>
<svg version="1.1" xmlns="http://www.w3.org/2000/svg" width="3840" height="3840">
<path d="M0 0 C1267.2 0 2534.4 0 3840 0 C3840 1267.2 3840 2534.4 3840 3840 C2572.8 3840 1305.6 3840 0 3840 C0 2572.8 0 1305.6 0 0 Z " fill="#3178C6" transform="translate(0,0)"/>
<path d="M0 0 C1.00104515 0.00026688 2.0020903 0.00053375 3.03347015 0.00080872 C34.27211926 0.01126475 65.43651685 0.24391512 96.625 2.1875 C97.72944458 2.2553772 98.83388916 2.32325439 99.97180176 2.39318848 C130.2604598 4.26733277 160.49052266 6.57773136 190.625 10.1875 C191.3368042 10.27235657 192.0486084 10.35721313 192.78198242 10.44464111 C197.66936772 11.02918209 202.55421526 11.6321716 207.4375 12.25 C208.62867432 12.40017578 209.81984863 12.55035156 211.04711914 12.70507812 C219.50759784 13.81386898 227.89822233 15.23216133 236.29043579 16.76211548 C238.72126605 17.20504078 241.15292479 17.64319824 243.5847168 18.08081055 C263.99940312 21.76427979 284.36680984 25.49037846 304.52001953 30.43554688 C307.88120727 31.24954737 311.24996493 32.02512088 314.62109375 32.796875 C331.89982764 36.79079092 348.77593344 41.6654322 365.625 47.1875 C366.36069214 47.42849426 367.09638428 47.66948853 367.85437012 47.91778564 C376.37962702 50.71409319 384.89599861 53.53729578 393.40234375 56.390625 C394.65265381 56.80989258 395.90296387 57.22916016 397.19116211 57.66113281 C403.35452138 59.78289495 409.48639767 61.99514203 415.625 64.1875 C415.625 180.0175 415.625 295.8475 415.625 415.1875 C410.12572213 412.13234563 405.25780827 409.34992438 400.1875 405.8125 C348.59823688 370.75964333 285.65206796 344.20588304 225.11230469 328.84082031 C221.72319527 327.95063021 218.37083745 326.94902433 215.01245117 325.95019531 C202.7157188 322.30792813 190.26549795 319.52379464 177.7265625 316.8515625 C175.00207947 316.2682349 172.28173566 315.66970796 169.5625 315.0625 C159.57211751 312.85714542 149.53804631 311.13190282 139.42529297 309.58154297 C134.86179634 308.88054389 130.32955248 308.14973815 125.8125 307.19140625 C85.18704232 298.8802808 41.91276049 298.26833237 0.625 299.1875 C-0.24962891 299.20576843 -1.12425781 299.22403687 -2.02539062 299.24285889 C-44.59694402 300.16811369 -86.60182833 305.62887003 -127.375 318.1875 C-128.22771484 318.44756836 -129.08042969 318.70763672 -129.95898438 318.97558594 C-178.90283655 334.06506791 -226.87306491 362.2378434 -251.6875 408.625 C-255.83991294 416.59010475 -258.94560679 424.54014442 -261.375 433.1875 C-261.59542969 433.9403125 -261.81585937 434.693125 -262.04296875 435.46875 C-264.9124237 445.99727644 -265.73719686 456.50507197 -265.6875 467.375 C-265.68258545 468.65149414 -265.6776709 469.92798828 -265.67260742 471.24316406 C-265.10393978 517.19150989 -240.7784997 552.54222228 -209.109375 583.640625 C-204.08738654 588.50555362 -198.97338038 592.98871472 -193.375 597.1875 C-192.2855403 598.03919156 -191.19706861 598.89214787 -190.109375 599.74609375 C-171.3038685 614.3411101 -151.00871532 627.34773216 -130.375 639.1875 C-129.42915039 639.73374023 -128.48330078 640.27998047 -127.50878906 640.84277344 C-98.5188068 657.50851204 -68.43428122 672.08644674 -37.91127014 685.70700073 C-32.94912798 687.92277581 -28.01213867 690.18953103 -23.08105469 692.47338867 C-3.03027027 701.75271305 17.29855915 710.38830948 37.67010498 718.93380737 C68.25396589 731.76479701 98.71230882 744.84978237 128.625 759.1875 C129.36228333 759.5408844 130.09956665 759.8942688 130.85919189 760.25836182 C166.94099729 777.57051498 166.94099729 777.57051498 182.41992188 785.98925781 C184.8738347 787.32271709 187.33530981 788.64166137 189.796875 789.9609375 C202.66277845 796.8867873 215.30722849 804.1614991 227.89355469 811.58154297 C230.36378531 813.03391846 232.84003709 814.47502497 235.3203125 815.91015625 C267.53916957 834.59192318 298.22868868 856.35297023 326.52734375 880.5625 C329.42978373 883.03866957 332.39740584 885.42711164 335.375 887.8125 C339.61286525 891.25691878 343.48921539 894.90517622 347.26171875 898.8515625 C349.24069365 900.80764017 351.25371583 902.61887015 353.359375 904.43359375 C357.82854949 908.31106886 362.0164205 912.4312721 366.1875 916.625 C366.90357422 917.33720703 367.61964844 918.04941406 368.35742188 918.78320312 C372.43402923 922.86722924 376.33266198 927.04983378 380.09936523 931.42114258 C381.97764364 933.5957856 383.92543776 935.70175348 385.875 937.8125 C391.46177502 944.01372574 396.54756779 950.56928273 401.625 957.1875 C402.11403809 957.81962402 402.60307617 958.45174805 403.10693359 959.10302734 C410.84745712 969.12358778 417.92771604 979.44361355 424.625 990.1875 C424.99657227 990.77756836 425.36814453 991.36763672 425.75097656 991.97558594 C450.25007597 1031.01752974 467.64084793 1073.63698135 477.75 1118.5625 C477.92308685 1119.32607819 478.09617371 1120.08965637 478.27450562 1120.87637329 C480.67848843 1131.5096249 482.93776691 1142.11374976 484.32617188 1152.93457031 C484.64728427 1155.35550594 485.01790413 1157.76618214 485.390625 1160.1796875 C492.48724187 1208.31363956 491.53632822 1258.90209873 486.625 1307.1875 C486.43284912 1309.08653076 486.43284912 1309.08653076 486.23681641 1311.02392578 C484.9285652 1323.5403841 483.03896717 1335.8413711 480.625 1348.1875 C480.49732239 1348.84462982 480.36964478 1349.50175964 480.23809814 1350.17880249 C476.4575681 1369.57507728 471.89961975 1388.42168252 465.625 1407.1875 C464.99218124 1409.13411255 464.35936865 1411.0807271 463.7265625 1413.02734375 C446.69366898 1464.51114626 417.52742895 1512.60649055 380.9609375 1552.60546875 C379.68466144 1554.01620198 378.41481704 1555.43329877 377.1784668 1556.87915039 C372.41439322 1562.43876975 367.32294566 1567.64273638 362.13696289 1572.8059082 C360.68975615 1574.24775221 359.24797974 1575.69487116 357.80664062 1577.14257812 C352.58305078 1582.37019653 347.25814096 1587.40354461 341.625 1592.1875 C340.66078125 1593.033125 339.6965625 1593.87875 338.703125 1594.75 C310.41242629 1619.13314364 278.58983044 1638.81161364 245.625 1656.1875 C244.69768066 1656.67718262 243.77036133 1657.16686523 242.81494141 1657.67138672 C216.40205859 1671.50974802 188.71879982 1682.30861465 160.625 1692.1875 C159.50738281 1692.58420898 158.38976563 1692.98091797 157.23828125 1693.38964844 C143.74567996 1698.15197783 130.13859255 1702.27596017 116.3125 1705.9375 C115.6383606 1706.11645813 114.96422119 1706.29541626 114.26965332 1706.47979736 C95.12725712 1711.53153955 75.82861548 1715.67168663 56.34863281 1719.19018555 C53.25751086 1719.74864305 50.16774404 1720.31415202 47.078125 1720.88085938 C40.93078046 1722.00421545 34.77946941 1723.10388311 28.625 1724.1875 C27.62544281 1724.36350739 26.62588562 1724.53951477 25.59603882 1724.72085571 C11.66948696 1727.15400721 -2.27154307 1729.20112772 -16.30786133 1730.88793945 C-19.28241236 1731.24637442 -22.25545362 1731.61576831 -25.22851562 1731.98632812 C-53.90743728 1735.5116683 -82.57404455 1737.73439762 -111.4375 1738.875 C-112.59051291 1738.92153088 -112.59051291 1738.92153088 -113.766819 1738.96900177 C-175.75369979 1741.46782648 -237.40475743 1740.50124581 -299.29296875 1736.17578125 C-300.40601379 1736.09876984 -301.51905884 1736.02175842 -302.66583252 1735.94241333 C-313.83212665 1735.1385952 -324.93886193 1733.87663807 -336.05566406 1732.56982422 C-339.30361624 1732.19572205 -342.55314907 1731.84531283 -345.8046875 1731.50390625 C-358.90223479 1730.12059198 -371.95432523 1728.48869134 -385 1726.6875 C-385.74305389 1726.58576477 -386.48610779 1726.48402954 -387.25167847 1726.37921143 C-396.69995566 1725.08056289 -406.09162654 1723.57708516 -415.47705078 1721.88378906 C-418.8063299 1721.28908131 -422.13683163 1720.72736501 -425.4765625 1720.1953125 C-439.23107167 1718.00404832 -452.79906486 1715.29126716 -466.375 1712.1875 C-467.92574219 1711.83534424 -467.92574219 1711.83534424 -469.5078125 1711.47607422 C-477.13693033 1709.74165646 -484.75714424 1707.97064422 -492.375 1706.1875 C-493.98157471 1705.81407471 -493.98157471 1705.81407471 -495.62060547 1705.43310547 C-513.83018124 1701.19350304 -531.88088568 1696.57149539 -549.5625 1690.4609375 C-552.87396356 1689.33014796 -556.21567387 1688.31004369 -559.5625 1687.2890625 C-585.21073056 1679.43136401 -609.96886859 1669.47716861 -634.375 1658.375 C-635.29877441 1657.95557129 -636.22254883 1657.53614258 -637.17431641 1657.10400391 C-644.43892776 1653.74554952 -651.2906024 1650.00217563 -658.375 1646.1875 C-658.375 1522.4375 -658.375 1398.6875 -658.375 1271.1875 C-651.64763267 1275.67241155 -651.64763267 1275.67241155 -648.73828125 1278.1484375 C-647.76375 1278.96852295 -647.76375 1278.96852295 -646.76953125 1279.80517578 C-646.08246094 1280.38509277 -645.39539062 1280.96500977 -644.6875 1281.5625 C-635.5418444 1289.18187404 -626.04205946 1296.24715094 -616.375 1303.1875 C-615.2602832 1303.98849121 -615.2602832 1303.98849121 -614.12304688 1304.80566406 C-592.98087785 1319.95411259 -571.20634981 1334.07501958 -548.59033203 1346.92773438 C-546.53452525 1348.09678474 -544.48361075 1349.27396229 -542.43359375 1350.453125 C-538.43737445 1352.74085291 -534.41445956 1354.97709487 -530.375 1357.1875 C-529.58303223 1357.6211084 -528.79106445 1358.0547168 -527.97509766 1358.50146484 C-483.26570253 1382.79576746 -434.61102015 1402.29129001 -385.375 1415.1875 C-383.95303753 1415.56461175 -382.53117013 1415.94208207 -381.109375 1416.31982422 C-362.1394983 1421.34982209 -343.19459156 1426.2293453 -323.87353516 1429.73339844 C-321.6244457 1430.14216396 -319.38044706 1430.57077138 -317.13671875 1431.0078125 C-297.65205968 1434.72521736 -277.85788851 1436.94273536 -258.125 1438.875 C-256.91440918 1438.99423828 -255.70381836 1439.11347656 -254.45654297 1439.23632812 C-236.40952141 1440.9315282 -218.51104383 1441.34805479 -200.39038086 1441.31787109 C-196.57987462 1441.31252438 -192.76948699 1441.3178397 -188.95898438 1441.32421875 C-167.5675931 1441.33255749 -146.55304685 1440.49170807 -125.3125 1437.9375 C-124.38134369 1437.82668091 -123.45018738 1437.71586182 -122.49081421 1437.60168457 C-57.03218519 1429.76219411 17.17786237 1410.77230307 60.625 1357.1875 C84.06074624 1326.62269809 93.84873681 1288.59625761 88.96875 1250.3828125 C83.81650188 1216.59047549 67.72533282 1187.33628719 44.171875 1162.8515625 C42.14055274 1160.7267745 40.23590591 1158.5836056 38.375 1156.3125 C35.81235566 1153.27584052 32.95374352 1150.74575722 29.92578125 1148.1796875 C27.27189942 1145.88175926 24.74032603 1143.47214427 22.1875 1141.0625 C2.31600377 1122.65223683 -21.11510783 1107.8690754 -44.375 1094.1875 C-45.23673828 1093.68009277 -46.09847656 1093.17268555 -46.98632812 1092.64990234 C-81.30729615 1072.5409954 -116.88961329 1055.11463482 -153.28314209 1039.10876465 C-155.51748136 1038.1247505 -157.75034129 1037.13743814 -159.98291016 1036.14941406 C-192.27752474 1021.85923497 -224.73236906 1007.97589891 -257.375 994.5 C-274.81570388 987.29970753 -292.14111349 979.86948845 -309.375 972.1875 C-310.44314941 971.71199707 -311.51129883 971.23649414 -312.61181641 970.74658203 C-323.52372333 965.87578501 -334.35240959 960.88037947 -344.98144531 955.41748047 C-346.75788537 954.50461786 -348.53617114 953.59534514 -350.31542969 952.68798828 C-366.22739371 944.56890504 -381.93494853 936.17299623 -397.375 927.1875 C-398.83075439 926.34396973 -398.83075439 926.34396973 -400.31591797 925.48339844 C-424.50158156 911.41159613 -447.97791809 895.96886498 -470.375 879.1875 C-470.94879395 878.75856445 -471.52258789 878.32962891 -472.11376953 877.88769531 C-496.34361343 859.6958464 -518.9229766 839.68621774 -540.375 818.3125 C-541.70168701 816.99282227 -541.70168701 816.99282227 -543.05517578 815.64648438 C-548.03587366 810.6534838 -552.79820516 805.55151504 -557.375 800.1875 C-558.32425969 799.10436218 -559.27472722 798.02228139 -560.2265625 796.94140625 C-601.37515782 749.76873875 -631.89457959 693.61570816 -648.375 633.1875 C-648.70628906 632.10339844 -649.03757812 631.01929687 -649.37890625 629.90234375 C-660.35805347 593.77879661 -664.85962296 554.81646603 -665.375 517.1875 C-665.38595703 516.40169556 -665.39691406 515.61589111 -665.40820312 514.80627441 C-666.39677859 439.42376104 -656.7898776 365.07207896 -624.375 296.1875 C-623.96282227 295.30803711 -623.55064453 294.42857422 -623.12597656 293.52246094 C-614.13978449 274.52908318 -603.38839525 256.41922906 -591.375 239.1875 C-590.96685059 238.6006543 -590.55870117 238.01380859 -590.13818359 237.40917969 C-578.93258959 221.36371344 -566.83055168 206.16140213 -553.640625 191.69921875 C-551.76605385 189.62103039 -549.93357296 187.51713556 -548.10546875 185.3984375 C-544.38151982 181.13516834 -540.45064147 177.11492175 -536.4375 173.125 C-535.77298828 172.45662109 -535.10847656 171.78824219 -534.42382812 171.09960938 C-530.46449846 167.14796028 -526.39445102 163.38440691 -522.15893555 159.73071289 C-519.97951843 157.84538436 -517.86679391 155.89264783 -515.75 153.9375 C-510.13150395 148.87571469 -504.23613895 144.22198961 -498.24023438 139.62011719 C-497.01487525 138.67896439 -495.79212733 137.73440017 -494.57226562 136.78613281 C-442.51478149 96.35013027 -382.50858423 67.41023086 -320.375 46.1875 C-318.80999756 45.65213623 -318.80999756 45.65213623 -317.21337891 45.10595703 C-271.39408143 29.58498896 -223.04696499 19.9256908 -175.375 12.1875 C-174.30636719 12.0136377 -173.23773437 11.83977539 -172.13671875 11.66064453 C-138.23447169 6.25127292 -103.7561876 2.84739604 -69.46221924 1.2875061 C-67.19462462 1.17885757 -64.92832503 1.05234115 -62.66162109 0.92651367 C-41.7912576 -0.15852935 -20.89204051 -0.01245389 0 0 Z " fill="#FEFEFE" transform="translate(3035.375,1784.8125)"/>
<path d="M0 0 C443.19 0 886.38 0 1343 0 C1343 101.97 1343 203.94 1343 309 C1183.94 309 1024.88 309 861 309 C861 761.76 861 1214.52 861 1681 C734.94 1681 608.88 1681 479 1681 C479 1228.24 479 775.48 479 309 C320.93 309 162.86 309 0 309 C0 207.03 0 105.06 0 0 Z " fill="#FEFEFE" transform="translate(885,1822)"/>
<path d="M0 0 C0.33 0 0.66 0 1 0 C1 114.51 1 229.02 1 347 C-113.84 347 -228.68 347 -347 347 C-347 346.67 -347 346.34 -347 346 C-345.93978638 345.90295776 -345.93978638 345.90295776 -344.8581543 345.80395508 C-270.19074235 338.80407297 -199.86755446 313.01502672 -141 266 C-140.07058594 265.26394531 -139.14117188 264.52789063 -138.18359375 263.76953125 C-132.19796977 258.95889462 -126.50552382 253.89155308 -120.88671875 248.6640625 C-118.3795352 246.35026117 -115.82645606 244.11051799 -113.25 241.875 C-102.19905711 231.94878958 -92.14068377 220.68834057 -83 209 C-81.95915338 207.71157668 -80.9174131 206.42387502 -79.875 205.13671875 C-53.82173691 172.66635932 -33.4859346 135.35471489 -20 96 C-19.68337402 95.07912598 -19.36674805 94.15825195 -19.04052734 93.20947266 C-8.77155044 62.98168007 -2.50879247 31.82796414 0 0 Z " fill="#000000" transform="translate(3839,3493)"/>
<path d="M0 0 C0.33 0 0.66 0 1 0 C1.06993164 0.69746338 1.13986328 1.39492676 1.21191406 2.11352539 C8.78504373 76.52378577 34.0624325 146.2294323 81 205 C81.73605469 205.92941406 82.47210938 206.85882812 83.23046875 207.81640625 C88.04110538 213.80203023 93.10844692 219.49447618 98.3359375 225.11328125 C100.64973883 227.6204648 102.88948201 230.17354394 105.125 232.75 C115.05121042 243.80094289 126.31165943 253.85931623 138 263 C139.28842332 264.04084662 140.57612498 265.0825869 141.86328125 266.125 C174.33364068 292.17826309 211.64528511 312.5140654 251 326 C251.92087402 326.31662598 252.84174805 326.63325195 253.79052734 326.95947266 C284.34812122 337.34048956 315.81263082 343.61969786 348 346 C348 346.33 348 346.66 348 347 C233.16 347 118.32 347 0 347 C0 232.49 0 117.98 0 0 Z " fill="#000000" transform="translate(0,3493)"/>
<path d="M0 0 C114.84 0 229.68 0 348 0 C348 114.51 348 229.02 348 347 C347.67 347 347.34 347 347 347 C346.90295776 345.98522583 346.90295776 345.98522583 346.80395508 344.94995117 C339.5298315 270.60403746 313.81931359 200.62250189 267 142 C266.26394531 141.07058594 265.52789063 140.14117187 264.76953125 139.18359375 C259.95889462 133.19796977 254.89155308 127.50552382 249.6640625 121.88671875 C247.35026117 119.3795352 245.11051799 116.82645606 242.875 114.25 C232.95185952 103.20247489 221.69479472 93.12652607 210 84 C208.61813245 82.90018815 207.23665529 81.79988571 205.85546875 80.69921875 C196.53083931 73.3093972 187.07671315 66.32792137 177 60 C175.93120605 59.32469238 175.93120605 59.32469238 174.84082031 58.63574219 C121.78985903 25.34483788 62.49225182 5.62139169 0 1 C0 0.67 0 0.34 0 0 Z " fill="#000000" transform="translate(3492,0)"/>
<path d="M0 0 C114.84 0 229.68 0 348 0 C348 0.33 348 0.66 348 1 C347.29319092 1.06469482 346.58638184 1.12938965 345.8581543 1.19604492 C271.19247928 8.19576419 200.85031091 33.99874498 142 81 C141.07058594 81.73605469 140.14117187 82.47210938 139.18359375 83.23046875 C133.1594542 88.07206028 127.44182528 93.1828366 121.78125 98.4375 C119.49212778 100.5465789 117.17524836 102.59978712 114.8125 104.625 C107.62378586 110.87411043 101.18144017 117.77003151 95 125 C94.15050781 125.96035156 93.30101563 126.92070313 92.42578125 127.91015625 C38.59854803 189.07077491 8.00602079 266.19400573 1 347 C0.67 347 0.34 347 0 347 C0 232.49 0 117.98 0 0 Z " fill="#000000" transform="translate(0,0)"/>
</svg>
